%TF.GenerationSoftware,KiCad,Pcbnew,8.0.6*%
%TF.CreationDate,2024-11-25T17:42:41+01:00*%
%TF.ProjectId,star,73746172-2e6b-4696-9361-645f70636258,rev?*%
%TF.SameCoordinates,Original*%
%TF.FileFunction,Soldermask,Top*%
%TF.FilePolarity,Negative*%
%FSLAX46Y46*%
G04 Gerber Fmt 4.6, Leading zero omitted, Abs format (unit mm)*
G04 Created by KiCad (PCBNEW 8.0.6) date 2024-11-25 17:42:41*
%MOMM*%
%LPD*%
G01*
G04 APERTURE LIST*
G04 Aperture macros list*
%AMRoundRect*
0 Rectangle with rounded corners*
0 $1 Rounding radius*
0 $2 $3 $4 $5 $6 $7 $8 $9 X,Y pos of 4 corners*
0 Add a 4 corners polygon primitive as box body*
4,1,4,$2,$3,$4,$5,$6,$7,$8,$9,$2,$3,0*
0 Add four circle primitives for the rounded corners*
1,1,$1+$1,$2,$3*
1,1,$1+$1,$4,$5*
1,1,$1+$1,$6,$7*
1,1,$1+$1,$8,$9*
0 Add four rect primitives between the rounded corners*
20,1,$1+$1,$2,$3,$4,$5,0*
20,1,$1+$1,$4,$5,$6,$7,0*
20,1,$1+$1,$6,$7,$8,$9,0*
20,1,$1+$1,$8,$9,$2,$3,0*%
G04 Aperture macros list end*
%ADD10C,1.500000*%
%ADD11C,0.250000*%
%ADD12C,3.002104*%
%ADD13C,0.000000*%
%ADD14RoundRect,0.237500X0.371231X-0.035355X-0.035355X0.371231X-0.371231X0.035355X0.035355X-0.371231X0*%
%ADD15RoundRect,0.140000X0.185681X0.118417X-0.080615X0.204942X-0.185681X-0.118417X0.080615X-0.204942X0*%
%ADD16RoundRect,0.135000X0.185000X-0.135000X0.185000X0.135000X-0.185000X0.135000X-0.185000X-0.135000X0*%
%ADD17RoundRect,0.140000X-0.170000X0.140000X-0.170000X-0.140000X0.170000X-0.140000X0.170000X0.140000X0*%
%ADD18R,0.300000X1.100000*%
%ADD19O,1.000000X1.800000*%
%ADD20O,1.000000X2.200000*%
%ADD21O,11.010000X11.010000*%
%ADD22RoundRect,0.140000X-0.055243X0.213186X-0.219823X-0.013339X0.055243X-0.213186X0.219823X0.013339X0*%
%ADD23C,2.200000*%
%ADD24RoundRect,0.050000X0.375000X0.050000X-0.375000X0.050000X-0.375000X-0.050000X0.375000X-0.050000X0*%
%ADD25RoundRect,0.050000X0.050000X0.375000X-0.050000X0.375000X-0.050000X-0.375000X0.050000X-0.375000X0*%
%ADD26R,1.650000X1.650000*%
%ADD27RoundRect,0.140000X0.170000X-0.140000X0.170000X0.140000X-0.170000X0.140000X-0.170000X-0.140000X0*%
%ADD28RoundRect,0.093750X-0.156250X-0.093750X0.156250X-0.093750X0.156250X0.093750X-0.156250X0.093750X0*%
%ADD29RoundRect,0.075000X-0.250000X-0.075000X0.250000X-0.075000X0.250000X0.075000X-0.250000X0.075000X0*%
%ADD30RoundRect,0.135000X0.135000X0.185000X-0.135000X0.185000X-0.135000X-0.185000X0.135000X-0.185000X0*%
%ADD31RoundRect,0.150000X-0.150000X0.512500X-0.150000X-0.512500X0.150000X-0.512500X0.150000X0.512500X0*%
%ADD32RoundRect,0.140000X-0.219823X0.013339X-0.055243X-0.213186X0.219823X-0.013339X0.055243X0.213186X0*%
%ADD33RoundRect,0.140000X-0.080615X-0.204942X0.185681X-0.118417X0.080615X0.204942X-0.185681X0.118417X0*%
G04 APERTURE END LIST*
D10*
X161011162Y-93720518D02*
X137146810Y-90252824D01*
X161011162Y-93720518D02*
G75*
G02*
X162119525Y-97131840I-287662J-1979182D01*
G01*
D11*
X141225000Y-95937681D02*
X141225000Y-95587681D01*
X109800000Y-123325000D02*
X109800000Y-123675000D01*
D10*
X144275988Y-115734704D02*
G75*
G02*
X144851174Y-113964433I1971212J338104D01*
G01*
X100899622Y-141610463D02*
G75*
G02*
X97997609Y-139502198I-930822J1770163D01*
G01*
D11*
X137553553Y-122921447D02*
X137553553Y-123271447D01*
X141925000Y-96637681D02*
G75*
G02*
X141225019Y-95937681I0J699981D01*
G01*
D10*
X117550000Y-132855000D02*
X128790000Y-132855000D01*
X84230412Y-97131904D02*
X101498819Y-113964441D01*
D11*
X137053553Y-123771447D02*
X136803553Y-123771447D01*
X109300000Y-122825000D02*
G75*
G02*
X109800000Y-123325000I0J-500000D01*
G01*
X137553553Y-123271447D02*
G75*
G02*
X137053553Y-123771353I-499953J47D01*
G01*
X104300000Y-96637681D02*
X104050000Y-96637681D01*
D12*
X138427501Y-126771447D02*
G75*
G02*
X135425397Y-126771447I-1501052J0D01*
G01*
X135425397Y-126771447D02*
G75*
G02*
X138427501Y-126771447I1501052J0D01*
G01*
D10*
X135640935Y-89158742D02*
X124968472Y-67533971D01*
D11*
X103350000Y-95587681D02*
G75*
G02*
X104050000Y-94887700I700000J-19D01*
G01*
D10*
X137146810Y-90252824D02*
G75*
G02*
X135640975Y-89158723I287590J1979124D01*
G01*
X109203190Y-90252824D02*
X85338838Y-93720518D01*
D11*
X105000000Y-95587681D02*
X105000000Y-95937681D01*
X136803553Y-122421447D02*
X137053553Y-122421447D01*
X103350000Y-95937681D02*
X103350000Y-95587681D01*
D10*
X145450915Y-141611677D02*
X128790000Y-132855000D01*
X102074012Y-115734704D02*
X97997569Y-139502191D01*
X84230412Y-97131904D02*
G75*
G02*
X85338837Y-93720513I1396028J1432174D01*
G01*
D11*
X109050000Y-124175000D02*
G75*
G02*
X108550000Y-123675000I0J500000D01*
G01*
X109300000Y-124175000D02*
X109050000Y-124175000D01*
X108550000Y-123675000D02*
X108550000Y-123325000D01*
D10*
X117550000Y-132855000D02*
X100899622Y-141610463D01*
D11*
X142875000Y-95587681D02*
X142875000Y-95937681D01*
X142175000Y-96637681D02*
X141925000Y-96637681D01*
X104300000Y-94887681D02*
G75*
G02*
X105000019Y-95587681I0J-700019D01*
G01*
X104050000Y-96637681D02*
G75*
G02*
X103350019Y-95937681I0J699981D01*
G01*
D10*
X148352607Y-139503215D02*
G75*
G02*
X145450924Y-141611660I-1971207J-338085D01*
G01*
X148352607Y-139503215D02*
X144275988Y-115734704D01*
D11*
X137053553Y-122421447D02*
G75*
G02*
X137553553Y-122921447I47J-499953D01*
G01*
X109800000Y-123675000D02*
G75*
G02*
X109300000Y-124175000I-500000J0D01*
G01*
D10*
X110709065Y-89158742D02*
G75*
G02*
X109203188Y-90252813I-1793465J885142D01*
G01*
D11*
X136803553Y-123771447D02*
G75*
G02*
X136303553Y-123271447I47J500047D01*
G01*
X136303553Y-122921447D02*
G75*
G02*
X136803553Y-122421353I500047J47D01*
G01*
D10*
X101498819Y-113964441D02*
G75*
G02*
X102073973Y-115734697I-1396119J-1432159D01*
G01*
X162119588Y-97131904D02*
X144851181Y-113964441D01*
X121381528Y-67533972D02*
G75*
G02*
X124968472Y-67533971I1793472J-885128D01*
G01*
D11*
X108550000Y-123325000D02*
G75*
G02*
X109050000Y-122825000I500000J0D01*
G01*
X105000000Y-95937681D02*
G75*
G02*
X104300000Y-96637700I-700000J-19D01*
G01*
D13*
G36*
X126283811Y-83385644D02*
G01*
X126275249Y-83518536D01*
X126261051Y-83650579D01*
X126241280Y-83781601D01*
X126215994Y-83911434D01*
X126185255Y-84039906D01*
X126149122Y-84166848D01*
X126107657Y-84292090D01*
X126060919Y-84415461D01*
X126008970Y-84536791D01*
X125951869Y-84655912D01*
X125889677Y-84772650D01*
X125822453Y-84886839D01*
X125750260Y-84998306D01*
X125673156Y-85106881D01*
X125591202Y-85212396D01*
X125587797Y-85216602D01*
X125591202Y-85220793D01*
X125632448Y-85272731D01*
X125672547Y-85325495D01*
X125711487Y-85379064D01*
X125749257Y-85433419D01*
X125785846Y-85488539D01*
X125821241Y-85544408D01*
X125855435Y-85601003D01*
X125888413Y-85658305D01*
X125920167Y-85716295D01*
X125950684Y-85774955D01*
X125979954Y-85834263D01*
X126007964Y-85894199D01*
X126034705Y-85954746D01*
X126060167Y-86015882D01*
X126084336Y-86077590D01*
X126107203Y-86139849D01*
X126109037Y-86144989D01*
X126710003Y-85544022D01*
X128414922Y-85544022D01*
X128414922Y-85871445D01*
X126845621Y-85871445D01*
X126311924Y-86405143D01*
X126212273Y-86504793D01*
X126213435Y-86510114D01*
X126230560Y-86592957D01*
X126245419Y-86676189D01*
X126258005Y-86759764D01*
X126268314Y-86843634D01*
X126276341Y-86927752D01*
X126282082Y-87012073D01*
X126285528Y-87096549D01*
X126286679Y-87181132D01*
X126282924Y-87335149D01*
X126271771Y-87487295D01*
X126253392Y-87637392D01*
X126227957Y-87785258D01*
X126195637Y-87930713D01*
X126156604Y-88073577D01*
X126111030Y-88213667D01*
X126059082Y-88350806D01*
X126000935Y-88484810D01*
X125936758Y-88615503D01*
X125866721Y-88742700D01*
X125790997Y-88866223D01*
X125709756Y-88985891D01*
X125623169Y-89101523D01*
X125531408Y-89212939D01*
X125434642Y-89319958D01*
X125333043Y-89422401D01*
X125226782Y-89520085D01*
X125116028Y-89612832D01*
X125000955Y-89700460D01*
X124881734Y-89782788D01*
X124758533Y-89859638D01*
X124631524Y-89930826D01*
X124500878Y-89996174D01*
X124366769Y-90055502D01*
X124229363Y-90108627D01*
X124088834Y-90155372D01*
X123945353Y-90195551D01*
X123799089Y-90228989D01*
X123650215Y-90255504D01*
X123498902Y-90274913D01*
X123345317Y-90287038D01*
X123339882Y-90287332D01*
X123339882Y-91028339D01*
X123012463Y-91028339D01*
X123012463Y-90287332D01*
X123007043Y-90287038D01*
X122853459Y-90274913D01*
X122702143Y-90255504D01*
X122553268Y-90228990D01*
X122407003Y-90195554D01*
X122263520Y-90155373D01*
X122122990Y-90108630D01*
X121985584Y-90055505D01*
X121851472Y-89996177D01*
X121720826Y-89930830D01*
X121593818Y-89859640D01*
X121470617Y-89782792D01*
X121351393Y-89700463D01*
X121236320Y-89612835D01*
X121125567Y-89520089D01*
X121019305Y-89422403D01*
X120917705Y-89319961D01*
X120820939Y-89212941D01*
X120729176Y-89101525D01*
X120642590Y-88985892D01*
X120561348Y-88866224D01*
X120485624Y-88742702D01*
X120415587Y-88615504D01*
X120351411Y-88484813D01*
X120293263Y-88350806D01*
X120241316Y-88213668D01*
X120195740Y-88073577D01*
X120156708Y-87930713D01*
X120124389Y-87785258D01*
X120098954Y-87637392D01*
X120080574Y-87487295D01*
X120069422Y-87335149D01*
X120065666Y-87181132D01*
X120393088Y-87181132D01*
X120396419Y-87318322D01*
X120406312Y-87453863D01*
X120422617Y-87587592D01*
X120445184Y-87719352D01*
X120473861Y-87848982D01*
X120508496Y-87976321D01*
X120548942Y-88101211D01*
X120595047Y-88223489D01*
X120646659Y-88342997D01*
X120703630Y-88459575D01*
X120765806Y-88573063D01*
X120833039Y-88683301D01*
X120905178Y-88790129D01*
X120982072Y-88893387D01*
X121063571Y-88992914D01*
X121149524Y-89088551D01*
X121239781Y-89180137D01*
X121334189Y-89267513D01*
X121432600Y-89350519D01*
X121534864Y-89428995D01*
X121640828Y-89502781D01*
X121750341Y-89571717D01*
X121863256Y-89635643D01*
X121979420Y-89694397D01*
X122098682Y-89747822D01*
X122220892Y-89795756D01*
X122345900Y-89838041D01*
X122473555Y-89874515D01*
X122603707Y-89905019D01*
X122736203Y-89929393D01*
X122870896Y-89947476D01*
X123007633Y-89959111D01*
X123012463Y-89959403D01*
X123012463Y-89063808D01*
X123339882Y-89063808D01*
X123339882Y-89959403D01*
X123344729Y-89959107D01*
X123481466Y-89947474D01*
X123616157Y-89929391D01*
X123748653Y-89905016D01*
X123878805Y-89874512D01*
X124006459Y-89838038D01*
X124131467Y-89795753D01*
X124253678Y-89747818D01*
X124372940Y-89694394D01*
X124489102Y-89635638D01*
X124602016Y-89571714D01*
X124711530Y-89502778D01*
X124817493Y-89428992D01*
X124919754Y-89350516D01*
X125018166Y-89267510D01*
X125112573Y-89180134D01*
X125202828Y-89088548D01*
X125288781Y-88992911D01*
X125370279Y-88893383D01*
X125447172Y-88790126D01*
X125519310Y-88683300D01*
X125586543Y-88573062D01*
X125648720Y-88459574D01*
X125705689Y-88342996D01*
X125757301Y-88223488D01*
X125803405Y-88101210D01*
X125843850Y-87976320D01*
X125878485Y-87848982D01*
X125907162Y-87719352D01*
X125929728Y-87587592D01*
X125946033Y-87453863D01*
X125955927Y-87318322D01*
X125959257Y-87181132D01*
X125958827Y-87132169D01*
X125957536Y-87083233D01*
X125955385Y-87034335D01*
X125952376Y-86985487D01*
X125948506Y-86936699D01*
X125943779Y-86887983D01*
X125938196Y-86839350D01*
X125931754Y-86790813D01*
X125931065Y-86786000D01*
X123980680Y-88736386D01*
X124715054Y-88736386D01*
X124715054Y-89063808D01*
X123339882Y-89063808D01*
X123012463Y-89063808D01*
X121637290Y-89063808D01*
X121637290Y-88736386D01*
X122459005Y-88736386D01*
X120843030Y-87877166D01*
X121177738Y-87542459D01*
X120421279Y-86785999D01*
X120420591Y-86790813D01*
X120414149Y-86839350D01*
X120408565Y-86887983D01*
X120403838Y-86936699D01*
X120399969Y-86985487D01*
X120396959Y-87034335D01*
X120394809Y-87083233D01*
X120393518Y-87132169D01*
X120393088Y-87181132D01*
X120065666Y-87181132D01*
X120066816Y-87096543D01*
X120070264Y-87012066D01*
X120076003Y-86927745D01*
X120084030Y-86843627D01*
X120094339Y-86759759D01*
X120106926Y-86676186D01*
X120121785Y-86592956D01*
X120138911Y-86510114D01*
X120140072Y-86504793D01*
X120040422Y-86405143D01*
X120503461Y-86405143D01*
X121409257Y-87310939D01*
X121743965Y-86976232D01*
X122679851Y-88736386D01*
X123517640Y-88736386D01*
X125848883Y-86405143D01*
X125847525Y-86400477D01*
X125828200Y-86337152D01*
X125807397Y-86274367D01*
X125785125Y-86212148D01*
X125761399Y-86150518D01*
X125736232Y-86089502D01*
X125709638Y-86029125D01*
X125681626Y-85969413D01*
X125652211Y-85910389D01*
X125621407Y-85852079D01*
X125589224Y-85794507D01*
X125555677Y-85737698D01*
X125520779Y-85681677D01*
X125484539Y-85626468D01*
X125446975Y-85572096D01*
X125408097Y-85518588D01*
X125367917Y-85465965D01*
X125364954Y-85462167D01*
X125361074Y-85465998D01*
X125249593Y-85570738D01*
X125133607Y-85669461D01*
X125013365Y-85762065D01*
X124889117Y-85848447D01*
X124761110Y-85928505D01*
X124629593Y-86002138D01*
X124494815Y-86069242D01*
X124357027Y-86129717D01*
X124216475Y-86183460D01*
X124073410Y-86230368D01*
X123928080Y-86270340D01*
X123780735Y-86303273D01*
X123631622Y-86329066D01*
X123480990Y-86347615D01*
X123329091Y-86358820D01*
X123176172Y-86362577D01*
X123023254Y-86358820D01*
X122871354Y-86347615D01*
X122720724Y-86329066D01*
X122571612Y-86303273D01*
X122424267Y-86270340D01*
X122278939Y-86230368D01*
X122135875Y-86183460D01*
X121995324Y-86129717D01*
X121857535Y-86069242D01*
X121722759Y-86002138D01*
X121591242Y-85928505D01*
X121463235Y-85848447D01*
X121338985Y-85762065D01*
X121218741Y-85669462D01*
X121102755Y-85570739D01*
X120991271Y-85465999D01*
X120987391Y-85462168D01*
X120984395Y-85465999D01*
X120944219Y-85518618D01*
X120905343Y-85572124D01*
X120867782Y-85626493D01*
X120831546Y-85681700D01*
X120796650Y-85737719D01*
X120763106Y-85794527D01*
X120730925Y-85852097D01*
X120700123Y-85910406D01*
X120670710Y-85969428D01*
X120642701Y-86029139D01*
X120616107Y-86089514D01*
X120590941Y-86150528D01*
X120567218Y-86212157D01*
X120544947Y-86274374D01*
X120524144Y-86337156D01*
X120504819Y-86400478D01*
X120503461Y-86405143D01*
X120040422Y-86405143D01*
X119506723Y-85871445D01*
X117937424Y-85871445D01*
X117937424Y-85544022D01*
X119642341Y-85544022D01*
X120231226Y-86132907D01*
X120233060Y-86127815D01*
X120256189Y-86065642D01*
X120280619Y-86004026D01*
X120306337Y-85942985D01*
X120333335Y-85882540D01*
X120361599Y-85822710D01*
X120391120Y-85763515D01*
X120421885Y-85704973D01*
X120453884Y-85647105D01*
X120487105Y-85589931D01*
X120521538Y-85533469D01*
X120557171Y-85477738D01*
X120593994Y-85422760D01*
X120631995Y-85368553D01*
X120671163Y-85315137D01*
X120711487Y-85262532D01*
X120748275Y-85216602D01*
X121204832Y-85216602D01*
X121208270Y-85220056D01*
X121308272Y-85315215D01*
X121412405Y-85404919D01*
X121520438Y-85489076D01*
X121632146Y-85567588D01*
X121747300Y-85640363D01*
X121865671Y-85707306D01*
X121987032Y-85768322D01*
X122111154Y-85823316D01*
X122237810Y-85872194D01*
X122366770Y-85914862D01*
X122497808Y-85951224D01*
X122630696Y-85981188D01*
X122765204Y-86004657D01*
X122901104Y-86021538D01*
X123038170Y-86031736D01*
X123176172Y-86035156D01*
X123314174Y-86031736D01*
X123451240Y-86021538D01*
X123587141Y-86004657D01*
X123721649Y-85981187D01*
X123854536Y-85951224D01*
X123985574Y-85914861D01*
X124114535Y-85872193D01*
X124241190Y-85823313D01*
X124365313Y-85768319D01*
X124486674Y-85707302D01*
X124605045Y-85640358D01*
X124720199Y-85567582D01*
X124831907Y-85489067D01*
X124939940Y-85404909D01*
X125044073Y-85315201D01*
X125144075Y-85220039D01*
X125147512Y-85216602D01*
X125144075Y-85213147D01*
X125044073Y-85117989D01*
X124939940Y-85028284D01*
X124831907Y-84944128D01*
X124720199Y-84865614D01*
X124605045Y-84792840D01*
X124486674Y-84725898D01*
X124365313Y-84664882D01*
X124241190Y-84609888D01*
X124114535Y-84561010D01*
X123985575Y-84518342D01*
X123854536Y-84481980D01*
X123721649Y-84452016D01*
X123587141Y-84428547D01*
X123451240Y-84411666D01*
X123314174Y-84401468D01*
X123176172Y-84398047D01*
X123038170Y-84401468D01*
X122901104Y-84411666D01*
X122765203Y-84428547D01*
X122630692Y-84452017D01*
X122497805Y-84481980D01*
X122366765Y-84518342D01*
X122237803Y-84561011D01*
X122111146Y-84609890D01*
X121987023Y-84664885D01*
X121865660Y-84725901D01*
X121747288Y-84792845D01*
X121632132Y-84865621D01*
X121520424Y-84944137D01*
X121412388Y-85028295D01*
X121308256Y-85118002D01*
X121208254Y-85213165D01*
X121204832Y-85216602D01*
X120748275Y-85216602D01*
X120752956Y-85210758D01*
X120756410Y-85206551D01*
X120752989Y-85202310D01*
X120671969Y-85097125D01*
X120595748Y-84988932D01*
X120524387Y-84877899D01*
X120457944Y-84764192D01*
X120396477Y-84647979D01*
X120340046Y-84529429D01*
X120288709Y-84408706D01*
X120242526Y-84285979D01*
X120201556Y-84161415D01*
X120165857Y-84035182D01*
X120135489Y-83907445D01*
X120110510Y-83778372D01*
X120090979Y-83648132D01*
X120076955Y-83516890D01*
X120068499Y-83384814D01*
X120065666Y-83252072D01*
X120393088Y-83252072D01*
X120395519Y-83368408D01*
X120402781Y-83484185D01*
X120414825Y-83599259D01*
X120431601Y-83713491D01*
X120453062Y-83826738D01*
X120479159Y-83938861D01*
X120509844Y-84049719D01*
X120545066Y-84159169D01*
X120584779Y-84267071D01*
X120628932Y-84373285D01*
X120677478Y-84477670D01*
X120730369Y-84580082D01*
X120787554Y-84680383D01*
X120848986Y-84778432D01*
X120914615Y-84874086D01*
X120984395Y-84967205D01*
X120987391Y-84971036D01*
X120991255Y-84967221D01*
X121102735Y-84862482D01*
X121218721Y-84763759D01*
X121338963Y-84671154D01*
X121463214Y-84584771D01*
X121591222Y-84504711D01*
X121722740Y-84431077D01*
X121857519Y-84363970D01*
X121995310Y-84303495D01*
X122135863Y-84249751D01*
X122278929Y-84202841D01*
X122424261Y-84162867D01*
X122571608Y-84129933D01*
X122720722Y-84104139D01*
X122871353Y-84085589D01*
X123023253Y-84074383D01*
X123176172Y-84070626D01*
X123329091Y-84074383D01*
X123480990Y-84085589D01*
X123631621Y-84104138D01*
X123780733Y-84129931D01*
X123928077Y-84162864D01*
X124073405Y-84202836D01*
X124216470Y-84249744D01*
X124357020Y-84303486D01*
X124494809Y-84363961D01*
X124629585Y-84431066D01*
X124761102Y-84504699D01*
X124889110Y-84584757D01*
X125013360Y-84671139D01*
X125133603Y-84763742D01*
X125249591Y-84862465D01*
X125361074Y-84967205D01*
X125364954Y-84971036D01*
X125367934Y-84967221D01*
X125437715Y-84874105D01*
X125503348Y-84778453D01*
X125564781Y-84680405D01*
X125621969Y-84580105D01*
X125674860Y-84477693D01*
X125723409Y-84373308D01*
X125767563Y-84267093D01*
X125807276Y-84159190D01*
X125842500Y-84049738D01*
X125873185Y-83938879D01*
X125899282Y-83826754D01*
X125920743Y-83713502D01*
X125937520Y-83599268D01*
X125949564Y-83484190D01*
X125956825Y-83368411D01*
X125959257Y-83252072D01*
X125955636Y-83108855D01*
X125944888Y-82967518D01*
X125927190Y-82828236D01*
X125902714Y-82691185D01*
X125871638Y-82556537D01*
X125834135Y-82424469D01*
X125790380Y-82295155D01*
X125740548Y-82168772D01*
X125684813Y-82045492D01*
X125623353Y-81925490D01*
X125556339Y-81808943D01*
X125483948Y-81696025D01*
X125406354Y-81586909D01*
X125323733Y-81481774D01*
X125236259Y-81380790D01*
X125144108Y-81284135D01*
X125047453Y-81191984D01*
X124946470Y-81104509D01*
X124841333Y-81021889D01*
X124732218Y-80944295D01*
X124619299Y-80871904D01*
X124502753Y-80804891D01*
X124382752Y-80743429D01*
X124259471Y-80687696D01*
X124133087Y-80637863D01*
X124003773Y-80594108D01*
X123871706Y-80556605D01*
X123737058Y-80525528D01*
X123600007Y-80501053D01*
X123460725Y-80483355D01*
X123319388Y-80472607D01*
X123176172Y-80468986D01*
X123032956Y-80472607D01*
X122891620Y-80483355D01*
X122752338Y-80501053D01*
X122615287Y-80525528D01*
X122480639Y-80556605D01*
X122348571Y-80594108D01*
X122219257Y-80637863D01*
X122092874Y-80687696D01*
X121969593Y-80743429D01*
X121849592Y-80804891D01*
X121733045Y-80871904D01*
X121620127Y-80944295D01*
X121511011Y-81021889D01*
X121405874Y-81104509D01*
X121304892Y-81191984D01*
X121208237Y-81284135D01*
X121116085Y-81380790D01*
X121028611Y-81481774D01*
X120945990Y-81586909D01*
X120868397Y-81696025D01*
X120796006Y-81808943D01*
X120728991Y-81925490D01*
X120667531Y-82045492D01*
X120611797Y-82168772D01*
X120561965Y-82295155D01*
X120518211Y-82424469D01*
X120480706Y-82556537D01*
X120449630Y-82691185D01*
X120425155Y-82828236D01*
X120407456Y-82967518D01*
X120396709Y-83108855D01*
X120393088Y-83252072D01*
X120065666Y-83252072D01*
X120069441Y-83097643D01*
X120080651Y-82945100D01*
X120099125Y-82794622D01*
X120124689Y-82646393D01*
X120157171Y-82500594D01*
X120196397Y-82357404D01*
X120242197Y-82217008D01*
X120294397Y-82079585D01*
X120352823Y-81945318D01*
X120417305Y-81814387D01*
X120487670Y-81686974D01*
X120563745Y-81563263D01*
X120645356Y-81443432D01*
X120732333Y-81327665D01*
X120824503Y-81216141D01*
X120921692Y-81109044D01*
X121023728Y-81006555D01*
X121130439Y-80908855D01*
X121241652Y-80816125D01*
X121357194Y-80728547D01*
X121476894Y-80646304D01*
X121600578Y-80569574D01*
X121728073Y-80498543D01*
X121859208Y-80433389D01*
X121993810Y-80374295D01*
X122131706Y-80321442D01*
X122272725Y-80275013D01*
X122416692Y-80235186D01*
X122563435Y-80202147D01*
X122712783Y-80176075D01*
X122864563Y-80157151D01*
X123018601Y-80145558D01*
X123024020Y-80145280D01*
X123012708Y-79404865D01*
X123339882Y-79404865D01*
X123339882Y-80145869D01*
X123345301Y-80146165D01*
X123498886Y-80158290D01*
X123650201Y-80177699D01*
X123799077Y-80204214D01*
X123945342Y-80237652D01*
X124088824Y-80277832D01*
X124229354Y-80324576D01*
X124366760Y-80377701D01*
X124500872Y-80437029D01*
X124631518Y-80502378D01*
X124758526Y-80573566D01*
X124881728Y-80650416D01*
X125000951Y-80732744D01*
X125116025Y-80820372D01*
X125226778Y-80913119D01*
X125333039Y-81010803D01*
X125434640Y-81113246D01*
X125531406Y-81220265D01*
X125623168Y-81331681D01*
X125709755Y-81447313D01*
X125790997Y-81566981D01*
X125866721Y-81690503D01*
X125936757Y-81817701D01*
X126000935Y-81948394D01*
X126059082Y-82082398D01*
X126111030Y-82219537D01*
X126156604Y-82359627D01*
X126195637Y-82502491D01*
X126227957Y-82647945D01*
X126253392Y-82795812D01*
X126271771Y-82945909D01*
X126282924Y-83098055D01*
X126286679Y-83252072D01*
X126283811Y-83385644D01*
G37*
D12*
X110673948Y-127175000D02*
G75*
G02*
X107671844Y-127175000I-1501052J0D01*
G01*
X107671844Y-127175000D02*
G75*
G02*
X110673948Y-127175000I1501052J0D01*
G01*
D11*
X141925000Y-94887681D02*
X142175000Y-94887681D01*
X142875000Y-95937681D02*
G75*
G02*
X142175000Y-96637700I-700000J-19D01*
G01*
D10*
X121381528Y-67533972D02*
X110709065Y-89158742D01*
D11*
X142175000Y-94887681D02*
G75*
G02*
X142875019Y-95587681I0J-700019D01*
G01*
X104050000Y-94887681D02*
X104300000Y-94887681D01*
X141225000Y-95587681D02*
G75*
G02*
X141925000Y-94887700I700000J-19D01*
G01*
X109050000Y-122825000D02*
X109300000Y-122825000D01*
X136303553Y-123271447D02*
X136303553Y-122921447D01*
D14*
%TO.C,D22*%
X120378718Y-94723718D03*
X119141282Y-93486282D03*
%TD*%
D15*
%TO.C,C8*%
X85926507Y-95788328D03*
X85013493Y-95491672D03*
%TD*%
D14*
%TO.C,D42*%
X129903718Y-99478718D03*
X128666282Y-98241282D03*
%TD*%
%TO.C,D36*%
X132313718Y-94728718D03*
X131076282Y-93491282D03*
%TD*%
%TO.C,D75*%
X125413718Y-106898718D03*
X124176282Y-105661282D03*
%TD*%
%TO.C,D72*%
X127788718Y-106903718D03*
X126551282Y-105666282D03*
%TD*%
%TO.C,D48*%
X125178718Y-101893718D03*
X123941282Y-100656282D03*
%TD*%
%TO.C,D69*%
X129943718Y-106708718D03*
X128706282Y-105471282D03*
%TD*%
D16*
%TO.C,R15*%
X122850000Y-121960000D03*
X122850000Y-120940000D03*
%TD*%
D14*
%TO.C,D60*%
X118198718Y-109273718D03*
X116961282Y-108036282D03*
%TD*%
%TO.C,D63*%
X115818718Y-106893718D03*
X114581282Y-105656282D03*
%TD*%
%TO.C,D24*%
X122708718Y-94723718D03*
X121471282Y-93486282D03*
%TD*%
%TO.C,D58*%
X118223718Y-104493718D03*
X116986282Y-103256282D03*
%TD*%
%TO.C,D49*%
X123003718Y-102083718D03*
X121766282Y-100846282D03*
%TD*%
%TO.C,D25*%
X120363718Y-97098718D03*
X119126282Y-95861282D03*
%TD*%
%TO.C,D56*%
X120573718Y-109263718D03*
X119336282Y-108026282D03*
%TD*%
D17*
%TO.C,C3*%
X117305000Y-120950000D03*
X117305000Y-121910000D03*
%TD*%
D14*
%TO.C,D61*%
X115818718Y-102088718D03*
X114581282Y-100851282D03*
%TD*%
D18*
%TO.C,J2*%
X119820000Y-125605000D03*
X120620000Y-125605000D03*
X121920000Y-125605000D03*
X122920000Y-125605000D03*
X123420000Y-125605000D03*
X124420000Y-125605000D03*
X125720000Y-125605000D03*
X126520000Y-125605000D03*
X126220000Y-125605000D03*
X125420000Y-125605000D03*
X124920000Y-125605000D03*
X123920000Y-125605000D03*
X122420000Y-125605000D03*
X121420000Y-125605000D03*
X120920000Y-125605000D03*
X120120000Y-125605000D03*
D19*
X117550000Y-126755000D03*
D20*
X117550000Y-130755000D03*
D19*
X128790000Y-126755000D03*
D20*
X128790000Y-130755000D03*
%TD*%
D14*
%TO.C,D46*%
X129903718Y-101888718D03*
X128666282Y-100651282D03*
%TD*%
%TO.C,D40*%
X125083718Y-97098718D03*
X123846282Y-95861282D03*
%TD*%
D21*
%TO.C,J4*%
X104175000Y-102259700D03*
%TD*%
D14*
%TO.C,D54*%
X120623718Y-104483718D03*
X119386282Y-103246282D03*
%TD*%
%TO.C,D57*%
X118223718Y-102078718D03*
X116986282Y-100841282D03*
%TD*%
%TO.C,D76*%
X125413718Y-109288718D03*
X124176282Y-108051282D03*
%TD*%
D22*
%TO.C,C5*%
X100092137Y-139636672D03*
X99527863Y-140413328D03*
%TD*%
D14*
%TO.C,D66*%
X132318718Y-106688718D03*
X131081282Y-105451282D03*
%TD*%
%TO.C,D43*%
X127503718Y-99493718D03*
X126266282Y-98256282D03*
%TD*%
%TO.C,D67*%
X132318718Y-109103718D03*
X131081282Y-107866282D03*
%TD*%
%TO.C,D74*%
X125413718Y-104508718D03*
X124176282Y-103271282D03*
%TD*%
%TO.C,D27*%
X122778718Y-99498718D03*
X121541282Y-98261282D03*
%TD*%
%TO.C,D30*%
X120613718Y-99698718D03*
X119376282Y-98461282D03*
%TD*%
%TO.C,D41*%
X132303718Y-99488718D03*
X131066282Y-98251282D03*
%TD*%
%TO.C,D34*%
X127508718Y-94728718D03*
X126271282Y-93491282D03*
%TD*%
%TO.C,D44*%
X125153718Y-99508718D03*
X123916282Y-98271282D03*
%TD*%
%TO.C,D64*%
X115818718Y-109283718D03*
X114581282Y-108046282D03*
%TD*%
D23*
%TO.C,REF\u002A\u002A*%
X123175000Y-76450000D03*
%TD*%
D14*
%TO.C,D33*%
X129918718Y-94728718D03*
X128681282Y-93491282D03*
%TD*%
D16*
%TO.C,R1*%
X116300000Y-121955000D03*
X116300000Y-120935000D03*
%TD*%
D24*
%TO.C,U1*%
X124775000Y-116760000D03*
X124775000Y-116360000D03*
X124775000Y-115960000D03*
X124775000Y-115560000D03*
X124775000Y-115160000D03*
D25*
X124125000Y-114510000D03*
X123725000Y-114510000D03*
X123325000Y-114510000D03*
X122925000Y-114510000D03*
X122525000Y-114510000D03*
D24*
X121875000Y-115160000D03*
X121875000Y-115560000D03*
X121875000Y-115960000D03*
X121875000Y-116360000D03*
X121875000Y-116760000D03*
D25*
X122525000Y-117410000D03*
X122925000Y-117410000D03*
X123325000Y-117410000D03*
X123725000Y-117410000D03*
X124125000Y-117410000D03*
D26*
X123325000Y-115960000D03*
%TD*%
D14*
%TO.C,D55*%
X120623718Y-106898718D03*
X119386282Y-105661282D03*
%TD*%
%TO.C,D52*%
X122998718Y-109278718D03*
X121761282Y-108041282D03*
%TD*%
%TO.C,D47*%
X127553718Y-101903718D03*
X126316282Y-100666282D03*
%TD*%
%TO.C,D28*%
X118213718Y-97293718D03*
X116976282Y-96056282D03*
%TD*%
%TO.C,D38*%
X129883718Y-97093718D03*
X128646282Y-95856282D03*
%TD*%
%TO.C,D23*%
X122743718Y-97113718D03*
X121506282Y-95876282D03*
%TD*%
%TO.C,D31*%
X118208718Y-99688718D03*
X116971282Y-98451282D03*
%TD*%
%TO.C,D21*%
X118013718Y-94723718D03*
X116776282Y-93486282D03*
%TD*%
%TO.C,D29*%
X115813718Y-97283718D03*
X114576282Y-96046282D03*
%TD*%
%TO.C,D68*%
X129943718Y-104293718D03*
X128706282Y-103056282D03*
%TD*%
%TO.C,D50*%
X123028718Y-104498718D03*
X121791282Y-103261282D03*
%TD*%
D17*
%TO.C,C4*%
X125995000Y-114270000D03*
X125995000Y-115230000D03*
%TD*%
D21*
%TO.C,J3*%
X142050000Y-102259700D03*
%TD*%
D14*
%TO.C,D73*%
X127788718Y-109293718D03*
X126551282Y-108056282D03*
%TD*%
%TO.C,D53*%
X120598718Y-102068718D03*
X119361282Y-100831282D03*
%TD*%
D27*
%TO.C,C1*%
X123170000Y-68765000D03*
X123170000Y-67805000D03*
%TD*%
D14*
%TO.C,D39*%
X127508718Y-97108718D03*
X126271282Y-95871282D03*
%TD*%
%TO.C,D62*%
X115818718Y-104503718D03*
X114581282Y-103266282D03*
%TD*%
D28*
%TO.C,U4*%
X124450000Y-120872500D03*
D29*
X124375000Y-121410000D03*
D28*
X124450000Y-121947500D03*
X126150000Y-121947500D03*
D29*
X126225000Y-121410000D03*
D28*
X126150000Y-120872500D03*
%TD*%
D14*
%TO.C,D51*%
X123023718Y-106888718D03*
X121786282Y-105651282D03*
%TD*%
D16*
%TO.C,R16*%
X129715000Y-121885000D03*
X129715000Y-120865000D03*
%TD*%
D30*
%TO.C,R17*%
X122735000Y-118719369D03*
X121715000Y-118719369D03*
%TD*%
D16*
%TO.C,R19*%
X128687500Y-121885000D03*
X128687500Y-120865000D03*
%TD*%
D14*
%TO.C,D26*%
X115813718Y-94913718D03*
X114576282Y-93676282D03*
%TD*%
%TO.C,D35*%
X125123718Y-94728718D03*
X123886282Y-93491282D03*
%TD*%
%TO.C,D71*%
X127588718Y-104313718D03*
X126351282Y-103076282D03*
%TD*%
%TO.C,D65*%
X132293718Y-104273718D03*
X131056282Y-103036282D03*
%TD*%
%TO.C,D59*%
X118208718Y-106888718D03*
X116971282Y-105651282D03*
%TD*%
D27*
%TO.C,C2*%
X121780000Y-121915000D03*
X121780000Y-120955000D03*
%TD*%
D31*
%TO.C,U3*%
X120485000Y-120397500D03*
X118585000Y-120397500D03*
X119535000Y-122672500D03*
%TD*%
D16*
%TO.C,R2*%
X115295000Y-121960000D03*
X115295000Y-120940000D03*
%TD*%
D14*
%TO.C,D45*%
X132303718Y-101873718D03*
X131066282Y-100636282D03*
%TD*%
D32*
%TO.C,C6*%
X146227863Y-139616672D03*
X146792137Y-140393328D03*
%TD*%
D14*
%TO.C,D32*%
X115808718Y-99678718D03*
X114571282Y-98441282D03*
%TD*%
D16*
%TO.C,R20*%
X127660000Y-121885000D03*
X127660000Y-120865000D03*
%TD*%
D14*
%TO.C,D37*%
X132308718Y-97103718D03*
X131071282Y-95866282D03*
%TD*%
%TO.C,D70*%
X130168718Y-109298718D03*
X128931282Y-108061282D03*
%TD*%
D33*
%TO.C,C7*%
X160478493Y-95798328D03*
X161391507Y-95501672D03*
%TD*%
M02*
