%TF.GenerationSoftware,KiCad,Pcbnew,8.0.6*%
%TF.CreationDate,2024-11-25T17:42:41+01:00*%
%TF.ProjectId,star,73746172-2e6b-4696-9361-645f70636258,rev?*%
%TF.SameCoordinates,Original*%
%TF.FileFunction,Soldermask,Bot*%
%TF.FilePolarity,Negative*%
%FSLAX46Y46*%
G04 Gerber Fmt 4.6, Leading zero omitted, Abs format (unit mm)*
G04 Created by KiCad (PCBNEW 8.0.6) date 2024-11-25 17:42:41*
%MOMM*%
%LPD*%
G01*
G04 APERTURE LIST*
G04 Aperture macros list*
%AMRoundRect*
0 Rectangle with rounded corners*
0 $1 Rounding radius*
0 $2 $3 $4 $5 $6 $7 $8 $9 X,Y pos of 4 corners*
0 Add a 4 corners polygon primitive as box body*
4,1,4,$2,$3,$4,$5,$6,$7,$8,$9,$2,$3,0*
0 Add four circle primitives for the rounded corners*
1,1,$1+$1,$2,$3*
1,1,$1+$1,$4,$5*
1,1,$1+$1,$6,$7*
1,1,$1+$1,$8,$9*
0 Add four rect primitives between the rounded corners*
20,1,$1+$1,$2,$3,$4,$5,0*
20,1,$1+$1,$4,$5,$6,$7,0*
20,1,$1+$1,$6,$7,$8,$9,0*
20,1,$1+$1,$8,$9,$2,$3,0*%
G04 Aperture macros list end*
%ADD10C,1.500000*%
%ADD11O,1.000000X1.800000*%
%ADD12O,1.000000X2.200000*%
%ADD13C,2.200000*%
%ADD14RoundRect,0.090000X-0.516451X-0.546332X0.738943X-0.138429X0.516451X0.546332X-0.738943X0.138429X0*%
%ADD15RoundRect,0.090000X0.360000X-0.660000X0.360000X0.660000X-0.360000X0.660000X-0.360000X-0.660000X0*%
%ADD16RoundRect,0.090000X-0.679184X0.322349X0.096692X-0.745554X0.679184X-0.322349X-0.096692X0.745554X0*%
%ADD17RoundRect,0.090000X0.096692X0.745554X-0.679184X-0.322349X-0.096692X-0.745554X0.679184X0.322349X0*%
%ADD18RoundRect,0.090000X0.738943X0.138429X-0.516451X0.546332X-0.738943X-0.138429X0.516451X-0.546332X0*%
G04 APERTURE END LIST*
D10*
X100899055Y-141611677D02*
G75*
G02*
X97997387Y-139503219I-930455J1770377D01*
G01*
X137146780Y-90252824D02*
X161011132Y-93720518D01*
X161011132Y-93720518D02*
G75*
G02*
X162119507Y-97131852I-287632J-1979182D01*
G01*
X110709035Y-89158742D02*
X121381498Y-67533971D01*
X128799970Y-132855000D02*
X145450348Y-141610463D01*
X121381498Y-67533971D02*
G75*
G02*
X124968491Y-67533948I1793502J-885129D01*
G01*
X162119558Y-97131904D02*
X144851151Y-113964441D01*
X84230382Y-97131904D02*
G75*
G02*
X85338809Y-93720525I1396098J1432144D01*
G01*
X100899055Y-141611677D02*
X117559970Y-132855000D01*
X137146780Y-90252824D02*
G75*
G02*
X135640867Y-89158761I287620J1979324D01*
G01*
X101498789Y-113964441D02*
G75*
G02*
X102073980Y-115734704I-1395989J-1432159D01*
G01*
X84230382Y-97131904D02*
X101498789Y-113964441D01*
X144275958Y-115734704D02*
G75*
G02*
X144851138Y-113964427I1971242J338104D01*
G01*
X97997363Y-139503215D02*
X102073982Y-115734704D01*
X128790000Y-132855000D02*
X117550000Y-132855000D01*
X110709035Y-89158742D02*
G75*
G02*
X109203163Y-90252845I-1793435J885042D01*
G01*
X85338808Y-93720518D02*
X109203160Y-90252824D01*
X124968442Y-67533972D02*
X135640905Y-89158742D01*
X144275958Y-115734704D02*
X148352401Y-139502191D01*
X148352401Y-139502191D02*
G75*
G02*
X145450349Y-141610460I-1971201J-338109D01*
G01*
D11*
%TO.C,J2*%
X117550000Y-126755000D03*
D12*
X117550000Y-130755000D03*
D11*
X128790000Y-126755000D03*
D12*
X128790000Y-130755000D03*
%TD*%
D13*
%TO.C,REF\u002A\u002A*%
X123175000Y-76450000D03*
%TD*%
D14*
%TO.C,D18*%
X143784789Y-102941335D03*
X142765034Y-99802848D03*
X147425211Y-98288665D03*
X148444966Y-101427152D03*
%TD*%
D15*
%TO.C,D17*%
X124815000Y-86760000D03*
X121515000Y-86760000D03*
X121515000Y-81860000D03*
X124815000Y-81860000D03*
%TD*%
D16*
%TO.C,D19*%
X134260048Y-125962754D03*
X136929804Y-124023063D03*
X139809952Y-127987246D03*
X137140196Y-129926937D03*
%TD*%
D17*
%TO.C,D15*%
X109415196Y-124013063D03*
X112084952Y-125952754D03*
X109204804Y-129916937D03*
X106535048Y-127977246D03*
%TD*%
D18*
%TO.C,D16*%
X103599966Y-99832848D03*
X102580211Y-102971335D03*
X97920034Y-101457152D03*
X98939789Y-98318665D03*
%TD*%
M02*
