M48
; DRILL file {KiCad 8.0.6} date 2024-11-25T17:42:41+0100
; FORMAT={-:-/ absolute / inch / decimal}
; #@! TF.CreationDate,2024-11-25T17:42:41+01:00
; #@! TF.GenerationSoftware,Kicad,Pcbnew,8.0.6
; #@! TF.FileFunction,Plated,1,2,PTH
FMAT,2
INCH
; #@! TA.AperFunction,Plated,PTH,ViaDrill
T1C0.0118
; #@! TA.AperFunction,Plated,PTH,ComponentDrill
T2C0.0236
%
G90
G05
T1
X4.0534Y-4.8784
X4.0738Y-3.6752
X4.5098Y-4.3031
X4.5107Y-3.9232
X4.5108Y-3.7815
X4.5111Y-3.9705
X4.5111Y-4.1597
X4.5112Y-4.1159
X4.5128Y-3.7303
X4.5472Y-4.7185
X4.561Y-4.5108
X4.5759Y-5.1604
X4.5787Y-4.8602
X4.5866Y-4.1575
X4.593Y-4.717
X4.6054Y-3.9263
X4.6054Y-3.7817
X4.6058Y-3.9701
X4.6058Y-4.1158
X4.6073Y-4.3022
X4.6585Y-4.8035
X4.686Y-3.7776
X4.699Y-4.6181
X4.6993Y-3.9697
X4.6998Y-4.3002
X4.7001Y-4.1161
X4.7002Y-4.1599
X4.7028Y-3.9262
X4.712Y-4.7313
X4.7126Y-4.5384
X4.7285Y-4.5752
X4.7582Y-4.8907
X4.7628Y-3.8228
X4.7906Y-4.3002
X4.7943Y-3.9705
X4.7953Y-3.7648
X4.7962Y-4.1159
X4.8061Y-4.1604
X4.8134Y-4.7024
X4.8553Y-4.5654
X4.858Y-4.8322
X4.8786Y-3.8406
X4.8789Y-4.1604
X4.8796Y-3.9628
X4.8878Y-3.7736
X4.8888Y-4.2992
X4.8913Y-4.1164
X4.8917Y-4.8671
X4.9134Y-4.6614
X4.9272Y-4.5049
X4.9274Y-4.7749
X4.9365Y-4.4718
X4.9409Y-4.8445
X4.9572Y-4.0013
X4.9616Y-3.7736
X4.9665Y-4.8907
X4.9711Y-3.8228
X4.9731Y-3.9632
X4.9833Y-4.3012
X4.9911Y-4.5555
X4.997Y-4.1427
X5.0648Y-3.7739
X5.0654Y-4.0064
X5.0656Y-3.9626
X5.0669Y-3.8228
X5.0672Y-4.1524
X5.0778Y-4.3012
X5.0817Y-4.8622
X5.1033Y-4.7323
X5.1181Y-4.5098
X5.1227Y-5.1598
X5.1299Y-4.4606
X5.1555Y-4.2011
X5.1582Y-4.0056
X5.1594Y-3.8228
X5.1601Y-3.7741
X5.1604Y-3.9616
X5.1604Y-4.1516
X5.1683Y-4.3014
X5.1939Y-3.4154
X5.8369Y-4.2324
T2
G00X4.628Y-4.9746
M15
G01X4.628Y-5.0061
M16
G05
G00X4.628Y-5.1242
M15
G01X4.628Y-5.1715
M16
G05
G00X5.0705Y-4.9746
M15
G01X5.0705Y-5.0061
M16
G05
G00X5.0705Y-5.1242
M15
G01X5.0705Y-5.1715
M16
G05
M30
