%TF.GenerationSoftware,KiCad,Pcbnew,8.0.6*%
%TF.CreationDate,2024-11-25T17:42:41+01:00*%
%TF.ProjectId,star,73746172-2e6b-4696-9361-645f70636258,rev?*%
%TF.SameCoordinates,Original*%
%TF.FileFunction,Profile,NP*%
%FSLAX46Y46*%
G04 Gerber Fmt 4.6, Leading zero omitted, Abs format (unit mm)*
G04 Created by KiCad (PCBNEW 8.0.6) date 2024-11-25 17:42:41*
%MOMM*%
%LPD*%
G01*
G04 APERTURE LIST*
%TA.AperFunction,Profile*%
%ADD10C,0.100000*%
%TD*%
%TA.AperFunction,Profile*%
%ADD11C,0.120000*%
%TD*%
G04 APERTURE END LIST*
D10*
X84230412Y-97131904D02*
X101498819Y-113964441D01*
X84230412Y-97131904D02*
G75*
G02*
X85338837Y-93720513I1396028J1432174D01*
G01*
X162119588Y-97131904D02*
X144851181Y-113964441D01*
X161011162Y-93720518D02*
X137146810Y-90252824D01*
X109203190Y-90252824D02*
X85338838Y-93720518D01*
X100899622Y-141610463D02*
G75*
G02*
X97997609Y-139502198I-930822J1770163D01*
G01*
X102074012Y-115734704D02*
X97997569Y-139502191D01*
X144275988Y-115734704D02*
G75*
G02*
X144851174Y-113964433I1971212J338104D01*
G01*
X148352607Y-139503215D02*
X144275988Y-115734704D01*
X135640935Y-89158742D02*
X124968472Y-67533971D01*
X161011162Y-93720518D02*
G75*
G02*
X162119564Y-97131879I-287562J-1979182D01*
G01*
X117550000Y-132855000D02*
X100899622Y-141610463D01*
X148352607Y-139503215D02*
G75*
G02*
X145450924Y-141611660I-1971207J-338085D01*
G01*
X121381528Y-67533972D02*
G75*
G02*
X124968472Y-67533971I1793472J-885128D01*
G01*
X128790000Y-132855000D02*
X145450915Y-141611677D01*
X121381528Y-67533972D02*
X110709065Y-89158742D01*
X101498819Y-113964441D02*
G75*
G02*
X102074001Y-115734702I-1396019J-1432159D01*
G01*
X137146810Y-90252824D02*
G75*
G02*
X135640925Y-89158747I287590J1979224D01*
G01*
X110709065Y-89158742D02*
G75*
G02*
X109203188Y-90252813I-1793465J885142D01*
G01*
D11*
%TO.C,J2*%
X117550000Y-132855000D02*
X118550000Y-132855000D01*
X118550000Y-132855000D02*
X118550000Y-126155000D01*
X119000000Y-126155000D02*
X127340000Y-126155000D01*
X127790000Y-132855000D02*
X127790000Y-126155000D01*
X128790000Y-132855000D02*
X127790000Y-132855000D01*
X118550000Y-126155000D02*
G75*
G02*
X119000000Y-126155000I225000J0D01*
G01*
X127340000Y-126155000D02*
G75*
G02*
X127790000Y-126155000I225000J0D01*
G01*
%TD*%
M02*
