%TF.GenerationSoftware,KiCad,Pcbnew,8.0.6*%
%TF.CreationDate,2024-11-25T17:42:41+01:00*%
%TF.ProjectId,star,73746172-2e6b-4696-9361-645f70636258,rev?*%
%TF.SameCoordinates,Original*%
%TF.FileFunction,Copper,L2,Bot*%
%TF.FilePolarity,Positive*%
%FSLAX46Y46*%
G04 Gerber Fmt 4.6, Leading zero omitted, Abs format (unit mm)*
G04 Created by KiCad (PCBNEW 8.0.6) date 2024-11-25 17:42:41*
%MOMM*%
%LPD*%
G01*
G04 APERTURE LIST*
G04 Aperture macros list*
%AMRoundRect*
0 Rectangle with rounded corners*
0 $1 Rounding radius*
0 $2 $3 $4 $5 $6 $7 $8 $9 X,Y pos of 4 corners*
0 Add a 4 corners polygon primitive as box body*
4,1,4,$2,$3,$4,$5,$6,$7,$8,$9,$2,$3,0*
0 Add four circle primitives for the rounded corners*
1,1,$1+$1,$2,$3*
1,1,$1+$1,$4,$5*
1,1,$1+$1,$6,$7*
1,1,$1+$1,$8,$9*
0 Add four rect primitives between the rounded corners*
20,1,$1+$1,$2,$3,$4,$5,0*
20,1,$1+$1,$4,$5,$6,$7,0*
20,1,$1+$1,$6,$7,$8,$9,0*
20,1,$1+$1,$8,$9,$2,$3,0*%
G04 Aperture macros list end*
%TA.AperFunction,Conductor*%
%ADD10C,1.500000*%
%TD*%
%TA.AperFunction,Conductor*%
%ADD11C,0.500000*%
%TD*%
%TA.AperFunction,ComponentPad*%
%ADD12O,1.000000X1.800000*%
%TD*%
%TA.AperFunction,ComponentPad*%
%ADD13O,1.000000X2.200000*%
%TD*%
%TA.AperFunction,SMDPad,CuDef*%
%ADD14RoundRect,0.090000X-0.516451X-0.546332X0.738943X-0.138429X0.516451X0.546332X-0.738943X0.138429X0*%
%TD*%
%TA.AperFunction,SMDPad,CuDef*%
%ADD15RoundRect,0.090000X0.360000X-0.660000X0.360000X0.660000X-0.360000X0.660000X-0.360000X-0.660000X0*%
%TD*%
%TA.AperFunction,SMDPad,CuDef*%
%ADD16RoundRect,0.090000X-0.679184X0.322349X0.096692X-0.745554X0.679184X-0.322349X-0.096692X0.745554X0*%
%TD*%
%TA.AperFunction,SMDPad,CuDef*%
%ADD17RoundRect,0.090000X0.096692X0.745554X-0.679184X-0.322349X-0.096692X-0.745554X0.679184X0.322349X0*%
%TD*%
%TA.AperFunction,SMDPad,CuDef*%
%ADD18RoundRect,0.090000X0.738943X0.138429X-0.516451X0.546332X-0.738943X-0.138429X0.516451X-0.546332X0*%
%TD*%
%TA.AperFunction,ViaPad*%
%ADD19C,0.600000*%
%TD*%
%TA.AperFunction,Conductor*%
%ADD20C,0.200000*%
%TD*%
G04 APERTURE END LIST*
D10*
%TO.N,GND*%
X100899079Y-141611677D02*
G75*
G02*
X97997376Y-139503213I-930479J1770377D01*
G01*
D11*
%TO.N,Net-(D18-DOUT)*%
X147650000Y-108100000D02*
X142809549Y-112828628D01*
D10*
%TO.N,GND*%
X144275982Y-115734704D02*
G75*
G02*
X144851146Y-113964412I1971318J338104D01*
G01*
X137146804Y-90252824D02*
G75*
G02*
X135640874Y-89158769I287596J1979324D01*
G01*
X128799994Y-132855000D02*
X145450372Y-141610463D01*
X84230406Y-97131904D02*
X101498813Y-113964441D01*
X110709059Y-89158742D02*
G75*
G02*
X109203190Y-90252863I-1793459J885042D01*
G01*
D11*
%TO.N,Net-(D15-DOUT)*%
X103515192Y-112753692D02*
G75*
G02*
X104379020Y-115409608I-2093092J-2149208D01*
G01*
%TO.N,Net-(D16-DOUT)*%
X112475000Y-90725000D02*
X123185171Y-69023822D01*
X131325000Y-85550000D02*
X123185171Y-69023822D01*
D10*
%TO.N,GND*%
X161011156Y-93720518D02*
G75*
G02*
X162119560Y-97131882I-287556J-1979182D01*
G01*
X148352425Y-139502191D02*
G75*
G02*
X145450357Y-141610491I-1971225J-338109D01*
G01*
X137146804Y-90252824D02*
X161011156Y-93720518D01*
X101498813Y-113964441D02*
G75*
G02*
X102073997Y-115734702I-1396013J-1432159D01*
G01*
X84230406Y-97131904D02*
G75*
G02*
X85338832Y-93720521I1396044J1432164D01*
G01*
X128790000Y-132855000D02*
X117550000Y-132855000D01*
D11*
%TO.N,Net-(D17-DOUT)*%
X132325000Y-87575000D02*
X133877636Y-90725570D01*
%TO.N,Net-(D18-DOUT)*%
X146050000Y-139425000D02*
X141944403Y-115487530D01*
D10*
%TO.N,GND*%
X85338832Y-93720518D02*
X109203184Y-90252824D01*
D11*
%TO.N,Net-(D15-DOUT)*%
X104378987Y-115384602D02*
X103075000Y-123075000D01*
X102292402Y-93529350D02*
X86186599Y-95877210D01*
%TO.N,Net-(D17-DOUT)*%
X160216652Y-95870128D02*
X136135921Y-92366617D01*
%TO.N,DIN*%
X115500000Y-131450000D02*
X100254332Y-139448281D01*
%TO.N,Net-(D17-DOUT)*%
X149359226Y-106431894D02*
X160205499Y-95868505D01*
D10*
%TO.N,GND*%
X110709059Y-89158742D02*
X121381522Y-67533971D01*
D11*
%TO.N,Net-(D16-DOUT)*%
X104375000Y-93225000D02*
X110217847Y-92365883D01*
D10*
%TO.N,GND*%
X100899079Y-141611677D02*
X117559994Y-132855000D01*
D11*
%TO.N,Net-(D18-DOUT)*%
X146050000Y-139425000D02*
X131347351Y-131718372D01*
X141946231Y-115484536D02*
G75*
G02*
X142809579Y-112828659I2956669J507136D01*
G01*
D10*
%TO.N,GND*%
X121381522Y-67533971D02*
G75*
G02*
X124968476Y-67533967I1793478J-885129D01*
G01*
X144275982Y-115734704D02*
X148352425Y-139502191D01*
D11*
%TO.N,DIN*%
X102698988Y-125194386D02*
X100254332Y-139448281D01*
D10*
%TO.N,GND*%
X97997387Y-139503215D02*
X102074006Y-115734704D01*
D11*
%TO.N,Net-(D16-DOUT)*%
X112475000Y-90725000D02*
G75*
G02*
X110217851Y-92365908I-2690100J1327500D01*
G01*
D10*
%TO.N,GND*%
X162119582Y-97131904D02*
X144851175Y-113964441D01*
X124968466Y-67533972D02*
X135640929Y-89158742D01*
D11*
%TO.N,Net-(D15-DOUT)*%
X86180270Y-95871047D02*
X103515192Y-112753692D01*
%TO.N,Net-(D17-DOUT)*%
X136135921Y-92366617D02*
G75*
G02*
X133877669Y-90725554I431879J2968617D01*
G01*
%TD*%
D12*
%TO.P,J2,S1,SHIELD*%
%TO.N,GND*%
X117550000Y-126755000D03*
D13*
X117550000Y-130755000D03*
D12*
X128790000Y-126755000D03*
D13*
X128790000Y-130755000D03*
%TD*%
D14*
%TO.P,D18,1,VDD*%
%TO.N,+5V*%
X143784789Y-102941335D03*
%TO.P,D18,2,DOUT*%
%TO.N,Net-(D18-DOUT)*%
X142765034Y-99802848D03*
%TO.P,D18,3,VSS*%
%TO.N,GND*%
X147425211Y-98288665D03*
%TO.P,D18,4,DIN*%
%TO.N,Net-(D17-DOUT)*%
X148444966Y-101427152D03*
%TD*%
D15*
%TO.P,D17,1,VDD*%
%TO.N,+5V*%
X124815000Y-86760000D03*
%TO.P,D17,2,DOUT*%
%TO.N,Net-(D17-DOUT)*%
X121515000Y-86760000D03*
%TO.P,D17,3,VSS*%
%TO.N,GND*%
X121515000Y-81860000D03*
%TO.P,D17,4,DIN*%
%TO.N,Net-(D16-DOUT)*%
X124815000Y-81860000D03*
%TD*%
D16*
%TO.P,D19,1,VDD*%
%TO.N,+5V*%
X134260048Y-125962754D03*
%TO.P,D19,2,DOUT*%
%TO.N,unconnected-(D19-DOUT-Pad2)*%
X136929804Y-124023063D03*
%TO.P,D19,3,VSS*%
%TO.N,GND*%
X139809952Y-127987246D03*
%TO.P,D19,4,DIN*%
%TO.N,Net-(D18-DOUT)*%
X137140196Y-129926937D03*
%TD*%
D17*
%TO.P,D15,1,VDD*%
%TO.N,+5V*%
X109415196Y-124013063D03*
%TO.P,D15,2,DOUT*%
%TO.N,Net-(D15-DOUT)*%
X112084952Y-125952754D03*
%TO.P,D15,3,VSS*%
%TO.N,GND*%
X109204804Y-129916937D03*
%TO.P,D15,4,DIN*%
%TO.N,DIN*%
X106535048Y-127977246D03*
%TD*%
D18*
%TO.P,D16,1,VDD*%
%TO.N,+5V*%
X103599966Y-99832848D03*
%TO.P,D16,2,DOUT*%
%TO.N,Net-(D16-DOUT)*%
X102580211Y-102971335D03*
%TO.P,D16,3,VSS*%
%TO.N,GND*%
X97920034Y-101457152D03*
%TO.P,D16,4,DIN*%
%TO.N,Net-(D15-DOUT)*%
X98939789Y-98318665D03*
%TD*%
D19*
%TO.N,+5V*%
X126150000Y-124225004D03*
X102956063Y-123911967D03*
X130117772Y-131057961D03*
X116228322Y-131073437D03*
X120857197Y-124225004D03*
X103475000Y-93350000D03*
X148258227Y-107502467D03*
X131925000Y-86750000D03*
X125500000Y-123050000D03*
%TO.N,GND*%
X118325000Y-122010000D03*
X125156914Y-121283486D03*
X123325001Y-115960002D03*
X129625000Y-120200000D03*
X129075000Y-123500000D03*
%TO.N,+3V3*%
X125386192Y-113583472D03*
X119685000Y-120175000D03*
%TO.N,DIN*%
X115500006Y-119850000D03*
X120105002Y-116210000D03*
%TO.N,SWIO*%
X116661957Y-119811957D03*
X119355148Y-117298625D03*
X116300000Y-123450000D03*
%TO.N,Net-(J3-Pin_1)*%
X130000000Y-114550000D03*
X126775000Y-115710000D03*
%TO.N,Net-(J4-Pin_1)*%
X115850000Y-114575000D03*
X119700000Y-115275000D03*
%TO.N,Net-(U1-PD5)*%
X124800002Y-118400000D03*
X122259112Y-119440304D03*
%TO.N,unconnected-(U1-PD0-Pad5)*%
X130300000Y-113299998D03*
X125150000Y-114425000D03*
%TO.N,/USB_D-*%
X124250000Y-123625000D03*
X123392892Y-122738399D03*
%TO.N,LED2*%
X114625000Y-94750000D03*
X131066282Y-95861282D03*
X119025010Y-95950002D03*
X121800008Y-95625000D03*
X128646282Y-95856282D03*
X124150000Y-95850000D03*
X126025000Y-95850000D03*
%TO.N,LED3*%
X128700000Y-97100000D03*
X116976282Y-96056282D03*
X131050000Y-97100000D03*
X114575000Y-96050000D03*
X120975012Y-97100012D03*
X126265088Y-97100005D03*
X123916282Y-97550004D03*
%TO.N,LED4*%
X128666282Y-100651282D03*
X131075000Y-100625000D03*
X116976081Y-99728530D03*
X114571282Y-99650000D03*
X126316282Y-100666282D03*
X123941282Y-100656282D03*
X119450000Y-99725000D03*
%TO.N,LED7*%
X114581282Y-105656282D03*
X122075000Y-105675000D03*
X116500000Y-105599994D03*
X126924998Y-105225000D03*
X130950000Y-106708728D03*
X119386282Y-105661282D03*
X123925000Y-105675000D03*
%TO.N,LED6*%
X116987258Y-104540539D03*
X131075000Y-105450000D03*
X114583358Y-104544300D03*
X128706282Y-105471282D03*
X121823281Y-104543160D03*
X124237926Y-104557397D03*
X119383759Y-104548977D03*
%TO.N,LED5*%
X131017450Y-101742528D03*
X116986282Y-100841282D03*
X128662055Y-101763097D03*
X121775000Y-100850000D03*
X119361282Y-100831282D03*
X125913999Y-101631952D03*
X114581282Y-100851282D03*
%TO.N,LED8*%
X128975000Y-109250000D03*
X119375000Y-109225002D03*
X114550000Y-109300000D03*
X121681438Y-109224023D03*
X124176282Y-109200000D03*
X126575000Y-109250000D03*
X117025000Y-109275000D03*
X131275979Y-109256057D03*
%TD*%
D20*
%TO.N,+5V*%
X134260048Y-125962754D02*
X134260048Y-126915685D01*
D11*
X116228322Y-126303161D02*
X118306479Y-124225004D01*
X118306479Y-124225004D02*
X120857197Y-124225004D01*
D20*
X148258227Y-107414773D02*
X148258227Y-107502467D01*
X134260048Y-126915685D02*
X130117772Y-131057961D01*
D11*
X126150000Y-124225004D02*
X128100004Y-124225004D01*
D20*
X125500000Y-123050000D02*
X125500000Y-124225004D01*
X124925000Y-86650000D02*
X131875000Y-86650000D01*
D11*
X120857197Y-124225004D02*
X121007193Y-124375000D01*
D20*
X109415196Y-124013063D02*
X102932159Y-124013063D01*
D11*
X121007193Y-124375000D02*
X126000004Y-124375000D01*
D20*
X102932159Y-124013063D02*
X102931063Y-124011967D01*
D11*
X128100004Y-124225004D02*
X130117772Y-126242772D01*
D20*
X103599967Y-99832848D02*
X103375000Y-99607881D01*
D11*
X116228322Y-131073437D02*
X116228322Y-126303161D01*
D20*
X103375000Y-99607881D02*
X103375000Y-93450000D01*
X124815000Y-86760000D02*
X124925000Y-86650000D01*
D11*
X130117772Y-126242772D02*
X130117772Y-131057961D01*
X126000004Y-124375000D02*
X126150000Y-124225004D01*
D20*
X143784789Y-102941335D02*
X148258227Y-107414773D01*
X103375000Y-93450000D02*
X103475000Y-93350000D01*
%TO.N,GND*%
X121515000Y-81885964D02*
X125779036Y-86150000D01*
X102875000Y-98625000D02*
X102875000Y-91525000D01*
X107725000Y-124525000D02*
X109204804Y-126004804D01*
D11*
X128790000Y-132149114D02*
X128790000Y-130651992D01*
D20*
X139072706Y-127250000D02*
X139809952Y-127987246D01*
X117490719Y-132208276D02*
X117270749Y-132323945D01*
X147425211Y-98288665D02*
X145150000Y-100563876D01*
X121515000Y-81860000D02*
X121515000Y-81885964D01*
X97920034Y-101457152D02*
X100042848Y-101457152D01*
X148475000Y-106775000D02*
X149825000Y-108125000D01*
D11*
X127971257Y-125152690D02*
X128790000Y-125971433D01*
X128790000Y-126755000D02*
X128790000Y-130755000D01*
D20*
X117491251Y-130233227D02*
X117274829Y-130346804D01*
X117550000Y-132148995D02*
X117490719Y-132208276D01*
X129527085Y-132510415D02*
X134787500Y-127250000D01*
X134787500Y-127250000D02*
X139072706Y-127250000D01*
D11*
X117550000Y-126755000D02*
X117550000Y-125971433D01*
D20*
X100042848Y-101457152D02*
X102875000Y-98625000D01*
D11*
X118368743Y-125152690D02*
X127971257Y-125152690D01*
D20*
X125779036Y-86150000D02*
X133475000Y-86150000D01*
D11*
X117550000Y-130755000D02*
X117550000Y-126755000D01*
D20*
X145150000Y-100563876D02*
X145150000Y-103450000D01*
X129069142Y-132323888D02*
X128849150Y-132208264D01*
D11*
X117550000Y-125971433D02*
X118368743Y-125152690D01*
X128790000Y-125971433D02*
X128790000Y-126755000D01*
D20*
X145150000Y-103450000D02*
X148475000Y-106775000D01*
X117550000Y-130174478D02*
X117491251Y-130233227D01*
X109204804Y-126004804D02*
X109204804Y-129916937D01*
D11*
X117550000Y-130755000D02*
X117550000Y-132148995D01*
D20*
X101150000Y-124525000D02*
X107725000Y-124525000D01*
%TO.N,+3V3*%
X120230019Y-119629981D02*
X120230019Y-117119981D01*
X119685000Y-120175000D02*
X120230019Y-119629981D01*
X125219664Y-113750000D02*
X125386192Y-113583472D01*
X120230019Y-117119981D02*
X123600000Y-113750000D01*
X123600000Y-113750000D02*
X125219664Y-113750000D01*
%TO.N,DIN*%
X107975000Y-126537294D02*
X106535048Y-127977246D01*
X120105002Y-116210000D02*
X118390000Y-116210000D01*
X115500000Y-119850006D02*
X115500006Y-119850000D01*
X102698988Y-125194386D02*
X102893374Y-125000000D01*
X107300000Y-125000000D02*
X107975000Y-125675000D01*
X102893374Y-125000000D02*
X107300000Y-125000000D01*
X107975000Y-125675000D02*
X107975000Y-126537294D01*
X118390000Y-116210000D02*
X115500006Y-119099994D01*
X115500006Y-119099994D02*
X115500006Y-119850000D01*
X115500000Y-131450000D02*
X115500000Y-119850006D01*
%TO.N,Net-(D15-DOUT)*%
X112084952Y-125129349D02*
X109832479Y-122876876D01*
X98939789Y-98318665D02*
X99546124Y-98925000D01*
X102375000Y-98275000D02*
X102375000Y-93611948D01*
X109832479Y-122876876D02*
X109350583Y-122876876D01*
X102375000Y-93611948D02*
X102292402Y-93529350D01*
X112084952Y-125952754D02*
X112084952Y-125129349D01*
X109350583Y-122876876D02*
X108727459Y-123500000D01*
X101725000Y-98925000D02*
X102375000Y-98275000D01*
X108727459Y-123500000D02*
X103500000Y-123500000D01*
X99546124Y-98925000D02*
X101725000Y-98925000D01*
X103500000Y-123500000D02*
X103075000Y-123075000D01*
%TO.N,Net-(D16-DOUT)*%
X102580211Y-102971335D02*
X102580211Y-102469789D01*
X125850000Y-85650000D02*
X131225000Y-85650000D01*
X102580211Y-102469789D02*
X104730390Y-100319610D01*
X103875000Y-93846077D02*
X104375000Y-93346077D01*
X124815000Y-84615000D02*
X125850000Y-85650000D01*
X131225000Y-85650000D02*
X131325000Y-85550000D01*
X104375000Y-93346077D02*
X104375000Y-93225000D01*
X103875000Y-98675000D02*
X103875000Y-93846077D01*
X124815000Y-81860000D02*
X124815000Y-84615000D01*
X104730390Y-100319610D02*
X104730390Y-99530390D01*
X104730390Y-99530390D02*
X103875000Y-98675000D01*
%TO.N,Net-(D17-DOUT)*%
X122565000Y-87810000D02*
X125565000Y-87810000D01*
X145725000Y-102425000D02*
X146722848Y-101427152D01*
X125565000Y-87810000D02*
X126200000Y-87175000D01*
X148956894Y-106431894D02*
X145725000Y-103200000D01*
X146722848Y-101427152D02*
X148444966Y-101427152D01*
X121515000Y-86760000D02*
X122565000Y-87810000D01*
X149359226Y-106431894D02*
X148956894Y-106431894D01*
X145725000Y-103200000D02*
X145725000Y-102425000D01*
X126200000Y-87175000D02*
X131500000Y-87175000D01*
X131500000Y-87175000D02*
X131900000Y-87575000D01*
X131900000Y-87575000D02*
X132325000Y-87575000D01*
%TO.N,Net-(D18-DOUT)*%
X142654365Y-103454365D02*
X143225000Y-104025000D01*
X134575000Y-128225000D02*
X131347351Y-131452649D01*
X137140196Y-129926937D02*
X135438259Y-128225000D01*
X131347351Y-131452649D02*
X131347351Y-131718372D01*
X143225000Y-104025000D02*
X144100000Y-104025000D01*
X135438259Y-128225000D02*
X134575000Y-128225000D01*
X142654365Y-99913517D02*
X142654365Y-103454365D01*
X147650000Y-107575000D02*
X147650000Y-108100000D01*
X144100000Y-104025000D02*
X147650000Y-107575000D01*
X142765034Y-99802848D02*
X142654365Y-99913517D01*
%TO.N,SWIO*%
X116661957Y-119811957D02*
X116661957Y-123088043D01*
X119355148Y-117298625D02*
X119175289Y-117298625D01*
X116661957Y-123088043D02*
X116300000Y-123450000D01*
X119175289Y-117298625D02*
X116661957Y-119811957D01*
%TO.N,Net-(J3-Pin_1)*%
X128840000Y-115710000D02*
X126775000Y-115710000D01*
X130000000Y-114550000D02*
X128840000Y-115710000D01*
%TO.N,Net-(J4-Pin_1)*%
X115850000Y-114575000D02*
X119000000Y-114575000D01*
X119000000Y-114575000D02*
X119700000Y-115275000D01*
%TO.N,Net-(U1-PD5)*%
X123759698Y-119440304D02*
X124800002Y-118400000D01*
X122259112Y-119440304D02*
X123759698Y-119440304D01*
%TO.N,unconnected-(U1-PD0-Pad5)*%
X130300000Y-113299998D02*
X129037264Y-114562734D01*
X129037264Y-114562734D02*
X125287734Y-114562734D01*
X125287734Y-114562734D02*
X125150000Y-114425000D01*
%TO.N,/USB_D-*%
X123392892Y-122767892D02*
X124250000Y-123625000D01*
X123392892Y-122738399D02*
X123392892Y-122767892D01*
%TO.N,LED2*%
X131055000Y-95850000D02*
X128000000Y-95850000D01*
X126025000Y-95850000D02*
X123125000Y-95850000D01*
X114625000Y-94750000D02*
X117825008Y-94750000D01*
X117825008Y-94750000D02*
X119025010Y-95950002D01*
X128640000Y-95850000D02*
X128646282Y-95856282D01*
X121650000Y-95850000D02*
X119125012Y-95850000D01*
X119125012Y-95850000D02*
X119025010Y-95950002D01*
X128000000Y-95850000D02*
X126025000Y-95850000D01*
X123125000Y-95850000D02*
X124150000Y-95850000D01*
X131066282Y-95861282D02*
X131055000Y-95850000D01*
X121650000Y-95850000D02*
X121800008Y-95699992D01*
X128000000Y-95850000D02*
X128640000Y-95850000D01*
X121800008Y-95699992D02*
X121800008Y-95625000D01*
X123125000Y-95850000D02*
X121650000Y-95850000D01*
%TO.N,LED3*%
X116975000Y-96055000D02*
X116976282Y-96056282D01*
X124366281Y-97100005D02*
X123916282Y-97550004D01*
X116975000Y-96050000D02*
X116975000Y-96055000D01*
X126265093Y-97100000D02*
X126265088Y-97100005D01*
X126265088Y-97100005D02*
X124366281Y-97100005D01*
X128700000Y-97100000D02*
X131050000Y-97100000D01*
X114575000Y-96050000D02*
X116975000Y-96050000D01*
X128700000Y-97100000D02*
X126265093Y-97100000D01*
X120975012Y-97100012D02*
X123466290Y-97100012D01*
X118020012Y-97100012D02*
X120975012Y-97100012D01*
X116976282Y-96056282D02*
X118020012Y-97100012D01*
X123466290Y-97100012D02*
X123916282Y-97550004D01*
%TO.N,LED4*%
X127825000Y-100625000D02*
X125900000Y-100625000D01*
X117525000Y-99728530D02*
X117525000Y-99725000D01*
X114649812Y-99728530D02*
X114571282Y-99650000D01*
X123968718Y-100656282D02*
X123941282Y-100656282D01*
X123010000Y-99725000D02*
X119450000Y-99725000D01*
X125900000Y-100625000D02*
X126275000Y-100625000D01*
X124000000Y-100625000D02*
X123968718Y-100656282D01*
X117525000Y-99725000D02*
X119450000Y-99725000D01*
X116976081Y-99728530D02*
X117525000Y-99728530D01*
X126275000Y-100625000D02*
X126316282Y-100666282D01*
X128640000Y-100625000D02*
X128666282Y-100651282D01*
X131075000Y-100625000D02*
X127825000Y-100625000D01*
X125900000Y-100625000D02*
X124000000Y-100625000D01*
X116976081Y-99728530D02*
X114649812Y-99728530D01*
X127825000Y-100625000D02*
X128640000Y-100625000D01*
X123941282Y-100656282D02*
X123010000Y-99725000D01*
%TO.N,LED7*%
X116575000Y-105675000D02*
X116500000Y-105600000D01*
X121300000Y-105675000D02*
X122075000Y-105675000D01*
X123600000Y-105675000D02*
X121300000Y-105675000D01*
X118850000Y-105675000D02*
X119372564Y-105675000D01*
X119372564Y-105675000D02*
X119386282Y-105661282D01*
X123600000Y-105675000D02*
X123925000Y-105675000D01*
X118850000Y-105675000D02*
X116575000Y-105675000D01*
X116575000Y-105675000D02*
X114600000Y-105675000D01*
X130950000Y-106708728D02*
X130933728Y-106725000D01*
X116500000Y-105600000D02*
X116500000Y-105599994D01*
X126474998Y-105675000D02*
X126924998Y-105225000D01*
X121300000Y-105675000D02*
X118850000Y-105675000D01*
X114600000Y-105675000D02*
X114581282Y-105656282D01*
X130933728Y-106725000D02*
X128424998Y-106725000D01*
X128424998Y-106725000D02*
X126924998Y-105225000D01*
X123925000Y-105675000D02*
X126474998Y-105675000D01*
%TO.N,LED6*%
X131075000Y-105450000D02*
X128727564Y-105450000D01*
X124245323Y-104550000D02*
X127785000Y-104550000D01*
X124237926Y-104557397D02*
X124245323Y-104550000D01*
X124223689Y-104543160D02*
X124237926Y-104557397D01*
X119375321Y-104540539D02*
X119383759Y-104548977D01*
X127785000Y-104550000D02*
X128706282Y-105471282D01*
X121817464Y-104548977D02*
X121823281Y-104543160D01*
X128727564Y-105450000D02*
X128706282Y-105471282D01*
X119383759Y-104548977D02*
X121817464Y-104548977D01*
X114583358Y-104544300D02*
X116983497Y-104544300D01*
X116987258Y-104540539D02*
X119375321Y-104540539D01*
X121823281Y-104543160D02*
X124223689Y-104543160D01*
X116983497Y-104544300D02*
X116987258Y-104540539D01*
%TO.N,LED5*%
X116995000Y-100850000D02*
X116986282Y-100841282D01*
X128798958Y-101900000D02*
X128662055Y-101763097D01*
X128525152Y-101900000D02*
X126182047Y-101900000D01*
X128662055Y-101763097D02*
X128525152Y-101900000D01*
X130859978Y-101900000D02*
X128798958Y-101900000D01*
X122825000Y-101900000D02*
X121775000Y-100850000D01*
X114582564Y-100850000D02*
X114581282Y-100851282D01*
X119875000Y-100850000D02*
X117450000Y-100850000D01*
X121775000Y-100850000D02*
X119875000Y-100850000D01*
X119380000Y-100850000D02*
X119361282Y-100831282D01*
X126182047Y-101900000D02*
X125913999Y-101631952D01*
X117450000Y-100850000D02*
X114582564Y-100850000D01*
X117450000Y-100850000D02*
X116995000Y-100850000D01*
X119875000Y-100850000D02*
X119380000Y-100850000D01*
X131017450Y-101742528D02*
X130859978Y-101900000D01*
X125913999Y-101631952D02*
X125645951Y-101900000D01*
X125645951Y-101900000D02*
X122825000Y-101900000D01*
%TO.N,LED8*%
X131275979Y-109256057D02*
X128981057Y-109256057D01*
X119325002Y-109275000D02*
X119375000Y-109225002D01*
X124226282Y-109250000D02*
X124176282Y-109200000D01*
X124152259Y-109224023D02*
X124176282Y-109200000D01*
X121680459Y-109225002D02*
X119375000Y-109225002D01*
X114550000Y-109300000D02*
X114575000Y-109275000D01*
X128981057Y-109256057D02*
X128975000Y-109250000D01*
X121681438Y-109224023D02*
X121680459Y-109225002D01*
X126575000Y-109250000D02*
X128975000Y-109250000D01*
X117025000Y-109275000D02*
X119325002Y-109275000D01*
X121681438Y-109224023D02*
X124152259Y-109224023D01*
X114575000Y-109275000D02*
X117025000Y-109275000D01*
X126575000Y-109250000D02*
X124226282Y-109250000D01*
%TD*%
%TA.AperFunction,Conductor*%
%TO.N,GND*%
G36*
X124546340Y-114594685D02*
G01*
X124592095Y-114647489D01*
X124593860Y-114651544D01*
X124625464Y-114727841D01*
X124721718Y-114853282D01*
X124847159Y-114949536D01*
X124993238Y-115010044D01*
X125006721Y-115011819D01*
X125149999Y-115030682D01*
X125150000Y-115030682D01*
X125150001Y-115030682D01*
X125202254Y-115023802D01*
X125306762Y-115010044D01*
X125396983Y-114972672D01*
X125444436Y-114963234D01*
X126396482Y-114963234D01*
X126463521Y-114982919D01*
X126509276Y-115035723D01*
X126519220Y-115104881D01*
X126490195Y-115168437D01*
X126471970Y-115185608D01*
X126400720Y-115240281D01*
X126346718Y-115281718D01*
X126250463Y-115407160D01*
X126189956Y-115553237D01*
X126189955Y-115553239D01*
X126169318Y-115709998D01*
X126169318Y-115710001D01*
X126189955Y-115866760D01*
X126189956Y-115866762D01*
X126199383Y-115889522D01*
X126250464Y-116012841D01*
X126346718Y-116138282D01*
X126472159Y-116234536D01*
X126618238Y-116295044D01*
X126696619Y-116305363D01*
X126774999Y-116315682D01*
X126775000Y-116315682D01*
X126775001Y-116315682D01*
X126827254Y-116308802D01*
X126931762Y-116295044D01*
X127077841Y-116234536D01*
X127203282Y-116138282D01*
X127203283Y-116138279D01*
X127206093Y-116136124D01*
X127271263Y-116110930D01*
X127281580Y-116110500D01*
X128892725Y-116110500D01*
X128892727Y-116110500D01*
X128994588Y-116083207D01*
X129085913Y-116030480D01*
X129924991Y-115191400D01*
X129986312Y-115157917D01*
X129996485Y-115156144D01*
X129999997Y-115155681D01*
X130000000Y-115155682D01*
X130156762Y-115135044D01*
X130302841Y-115074536D01*
X130428282Y-114978282D01*
X130524536Y-114852841D01*
X130524536Y-114852839D01*
X130526730Y-114849981D01*
X130583158Y-114808779D01*
X130652904Y-114804624D01*
X130712787Y-114837787D01*
X132413681Y-116538681D01*
X132447166Y-116600004D01*
X132450000Y-116626362D01*
X132450000Y-121798638D01*
X132430315Y-121865677D01*
X132413681Y-121886319D01*
X130486319Y-123813681D01*
X130424996Y-123847166D01*
X130398638Y-123850000D01*
X128554887Y-123850000D01*
X128487848Y-123830315D01*
X128467206Y-123813681D01*
X128438020Y-123784495D01*
X128438019Y-123784494D01*
X128312489Y-123712020D01*
X128312484Y-123712018D01*
X128252938Y-123696062D01*
X128252938Y-123696063D01*
X128187571Y-123678548D01*
X128172479Y-123674504D01*
X128172478Y-123674504D01*
X126414823Y-123674504D01*
X126367370Y-123665065D01*
X126306762Y-123639960D01*
X126306760Y-123639959D01*
X126150001Y-123619322D01*
X126149999Y-123619322D01*
X126079783Y-123628566D01*
X126010748Y-123617800D01*
X125958492Y-123571420D01*
X125939607Y-123504151D01*
X125960088Y-123437351D01*
X125965222Y-123430141D01*
X126024535Y-123352842D01*
X126024534Y-123352842D01*
X126024536Y-123352841D01*
X126085044Y-123206762D01*
X126105682Y-123050000D01*
X126104528Y-123041238D01*
X126085044Y-122893239D01*
X126085044Y-122893238D01*
X126024536Y-122747159D01*
X125928282Y-122621718D01*
X125802841Y-122525464D01*
X125656762Y-122464956D01*
X125656760Y-122464955D01*
X125500001Y-122444318D01*
X125499999Y-122444318D01*
X125343239Y-122464955D01*
X125343237Y-122464956D01*
X125197160Y-122525463D01*
X125071718Y-122621718D01*
X124975463Y-122747160D01*
X124914956Y-122893237D01*
X124914955Y-122893239D01*
X124894318Y-123049998D01*
X124894318Y-123050002D01*
X124901972Y-123108144D01*
X124891206Y-123177179D01*
X124844826Y-123229434D01*
X124777556Y-123248319D01*
X124710756Y-123227838D01*
X124680658Y-123199815D01*
X124678282Y-123196718D01*
X124552841Y-123100464D01*
X124406762Y-123039956D01*
X124350577Y-123032559D01*
X124246485Y-123018855D01*
X124182589Y-122990588D01*
X124174990Y-122983597D01*
X124033811Y-122842418D01*
X124000326Y-122781095D01*
X123998888Y-122746527D01*
X123998574Y-122746527D01*
X123998574Y-122738991D01*
X123998555Y-122738541D01*
X123998574Y-122738399D01*
X123977936Y-122581637D01*
X123917428Y-122435558D01*
X123821174Y-122310117D01*
X123695733Y-122213863D01*
X123549654Y-122153355D01*
X123549652Y-122153354D01*
X123392893Y-122132717D01*
X123392891Y-122132717D01*
X123236131Y-122153354D01*
X123236129Y-122153355D01*
X123090052Y-122213862D01*
X122964610Y-122310117D01*
X122868355Y-122435559D01*
X122807848Y-122581636D01*
X122807847Y-122581638D01*
X122787210Y-122738397D01*
X122787210Y-122738400D01*
X122807847Y-122895159D01*
X122807848Y-122895161D01*
X122861168Y-123023888D01*
X122868356Y-123041240D01*
X122964610Y-123166681D01*
X123090051Y-123262935D01*
X123236130Y-123323443D01*
X123362441Y-123340072D01*
X123426338Y-123368338D01*
X123433937Y-123375330D01*
X123608597Y-123549990D01*
X123642082Y-123611313D01*
X123643855Y-123621485D01*
X123652127Y-123684314D01*
X123641362Y-123753349D01*
X123594982Y-123805605D01*
X123529188Y-123824500D01*
X121363772Y-123824500D01*
X121296733Y-123804815D01*
X121288286Y-123798876D01*
X121160039Y-123700468D01*
X121013959Y-123639960D01*
X121013957Y-123639959D01*
X120857198Y-123619322D01*
X120857196Y-123619322D01*
X120700436Y-123639959D01*
X120700434Y-123639960D01*
X120639827Y-123665065D01*
X120592374Y-123674504D01*
X118234004Y-123674504D01*
X118153545Y-123696063D01*
X118153544Y-123696062D01*
X118093998Y-123712018D01*
X118093993Y-123712020D01*
X117968465Y-123784493D01*
X117968462Y-123784495D01*
X117939277Y-123813681D01*
X117877954Y-123847166D01*
X117851596Y-123850000D01*
X116969871Y-123850000D01*
X116902832Y-123830315D01*
X116857077Y-123777511D01*
X116847133Y-123708353D01*
X116855310Y-123678548D01*
X116876012Y-123628566D01*
X116885044Y-123606762D01*
X116905682Y-123450000D01*
X116905681Y-123449997D01*
X116906144Y-123446486D01*
X116934410Y-123382590D01*
X116941404Y-123374988D01*
X116948055Y-123368338D01*
X116982437Y-123333956D01*
X117004690Y-123295412D01*
X117035164Y-123242630D01*
X117062457Y-123140770D01*
X117062457Y-120318537D01*
X117082142Y-120251498D01*
X117088081Y-120243050D01*
X117090236Y-120240240D01*
X117090239Y-120240239D01*
X117186493Y-120114798D01*
X117247001Y-119968719D01*
X117267639Y-119811957D01*
X117267638Y-119811954D01*
X117268101Y-119808442D01*
X117296367Y-119744546D01*
X117303347Y-119736958D01*
X119118256Y-117922049D01*
X119179577Y-117888566D01*
X119222116Y-117886793D01*
X119355148Y-117904307D01*
X119355149Y-117904307D01*
X119407402Y-117897427D01*
X119511910Y-117883669D01*
X119657989Y-117823161D01*
X119657989Y-117823160D01*
X119658066Y-117823129D01*
X119727536Y-117815660D01*
X119790015Y-117846935D01*
X119825667Y-117907024D01*
X119829519Y-117937690D01*
X119829519Y-119412724D01*
X119809834Y-119479763D01*
X119793199Y-119500407D01*
X119760006Y-119533599D01*
X119698682Y-119567083D01*
X119688512Y-119568855D01*
X119528238Y-119589956D01*
X119528237Y-119589956D01*
X119382160Y-119650463D01*
X119256718Y-119746718D01*
X119160463Y-119872160D01*
X119099956Y-120018237D01*
X119099955Y-120018239D01*
X119079318Y-120174998D01*
X119079318Y-120175001D01*
X119099955Y-120331760D01*
X119099956Y-120331762D01*
X119160464Y-120477841D01*
X119256718Y-120603282D01*
X119382159Y-120699536D01*
X119528238Y-120760044D01*
X119606619Y-120770363D01*
X119684999Y-120780682D01*
X119685000Y-120780682D01*
X119685001Y-120780682D01*
X119737254Y-120773802D01*
X119841762Y-120760044D01*
X119987841Y-120699536D01*
X120113282Y-120603282D01*
X120209536Y-120477841D01*
X120270044Y-120331762D01*
X120290682Y-120175000D01*
X120290681Y-120174997D01*
X120291144Y-120171485D01*
X120319410Y-120107589D01*
X120326377Y-120100014D01*
X120550499Y-119875894D01*
X120603226Y-119784569D01*
X120630519Y-119682708D01*
X120630519Y-119577254D01*
X120630519Y-119440302D01*
X121653430Y-119440302D01*
X121653430Y-119440305D01*
X121674067Y-119597064D01*
X121674068Y-119597066D01*
X121734576Y-119743145D01*
X121830830Y-119868586D01*
X121956271Y-119964840D01*
X122102350Y-120025348D01*
X122180731Y-120035667D01*
X122259111Y-120045986D01*
X122259112Y-120045986D01*
X122259113Y-120045986D01*
X122311366Y-120039106D01*
X122415874Y-120025348D01*
X122561953Y-119964840D01*
X122687394Y-119868586D01*
X122687395Y-119868583D01*
X122690205Y-119866428D01*
X122755375Y-119841234D01*
X122765692Y-119840804D01*
X123812423Y-119840804D01*
X123812425Y-119840804D01*
X123914286Y-119813511D01*
X124005611Y-119760784D01*
X124724993Y-119041400D01*
X124786314Y-119007917D01*
X124796487Y-119006144D01*
X124799999Y-119005681D01*
X124800002Y-119005682D01*
X124956764Y-118985044D01*
X125102843Y-118924536D01*
X125228284Y-118828282D01*
X125324538Y-118702841D01*
X125385046Y-118556762D01*
X125405684Y-118400000D01*
X125385046Y-118243238D01*
X125324538Y-118097159D01*
X125228284Y-117971718D01*
X125102843Y-117875464D01*
X124956764Y-117814956D01*
X124956762Y-117814955D01*
X124800003Y-117794318D01*
X124800001Y-117794318D01*
X124643241Y-117814955D01*
X124643239Y-117814956D01*
X124497162Y-117875463D01*
X124371720Y-117971718D01*
X124275465Y-118097160D01*
X124214958Y-118243237D01*
X124214958Y-118243238D01*
X124193857Y-118403513D01*
X124165590Y-118467409D01*
X124158599Y-118475008D01*
X123630124Y-119003485D01*
X123568801Y-119036970D01*
X123542443Y-119039804D01*
X122765692Y-119039804D01*
X122698653Y-119020119D01*
X122690205Y-119014180D01*
X122687395Y-119012024D01*
X122687394Y-119012022D01*
X122561953Y-118915768D01*
X122415874Y-118855260D01*
X122415872Y-118855259D01*
X122259113Y-118834622D01*
X122259111Y-118834622D01*
X122102351Y-118855259D01*
X122102349Y-118855260D01*
X121956272Y-118915767D01*
X121830830Y-119012022D01*
X121734575Y-119137464D01*
X121674068Y-119283541D01*
X121674067Y-119283543D01*
X121653430Y-119440302D01*
X120630519Y-119440302D01*
X120630519Y-117337236D01*
X120650204Y-117270197D01*
X120666838Y-117249555D01*
X123305074Y-114611319D01*
X123366397Y-114577834D01*
X123392755Y-114575000D01*
X124479301Y-114575000D01*
X124546340Y-114594685D01*
G37*
%TD.AperFunction*%
%TD*%
%TA.AperFunction,NonConductor*%
G36*
X128788050Y-114982919D02*
G01*
X128833805Y-115035723D01*
X128843749Y-115104881D01*
X128814724Y-115168437D01*
X128808692Y-115174915D01*
X128710426Y-115273181D01*
X128649103Y-115306666D01*
X128622745Y-115309500D01*
X127281580Y-115309500D01*
X127214541Y-115289815D01*
X127206093Y-115283876D01*
X127203283Y-115281720D01*
X127203282Y-115281718D01*
X127078030Y-115185609D01*
X127036829Y-115129182D01*
X127032674Y-115059436D01*
X127066887Y-114998515D01*
X127128604Y-114965763D01*
X127153518Y-114963234D01*
X128721011Y-114963234D01*
X128788050Y-114982919D01*
G37*
%TD.AperFunction*%
%TA.AperFunction,NonConductor*%
G36*
X121976284Y-114594685D02*
G01*
X122022039Y-114647489D01*
X122031983Y-114716647D01*
X122002958Y-114780203D01*
X121996932Y-114786673D01*
X121684070Y-115099536D01*
X120833080Y-115950525D01*
X120771757Y-115984010D01*
X120702065Y-115979026D01*
X120646132Y-115937154D01*
X120630839Y-115910299D01*
X120629539Y-115907161D01*
X120629538Y-115907160D01*
X120629538Y-115907159D01*
X120533284Y-115781718D01*
X120407843Y-115685464D01*
X120363339Y-115667029D01*
X120327890Y-115652346D01*
X120273487Y-115608504D01*
X120251423Y-115542210D01*
X120260783Y-115490332D01*
X120285044Y-115431762D01*
X120303732Y-115289815D01*
X120305682Y-115275001D01*
X120305682Y-115274998D01*
X120289372Y-115151111D01*
X120285044Y-115118238D01*
X120224536Y-114972159D01*
X120128282Y-114846718D01*
X120063977Y-114797375D01*
X120022775Y-114740948D01*
X120018620Y-114671202D01*
X120052832Y-114610282D01*
X120114550Y-114577529D01*
X120139464Y-114575000D01*
X121909245Y-114575000D01*
X121976284Y-114594685D01*
G37*
%TD.AperFunction*%
%TA.AperFunction,NonConductor*%
G36*
X118967247Y-116630185D02*
G01*
X119013002Y-116682989D01*
X119022946Y-116752147D01*
X118993921Y-116815703D01*
X118975699Y-116832872D01*
X118947899Y-116854203D01*
X118926864Y-116870344D01*
X118830612Y-116995783D01*
X118830611Y-116995784D01*
X118782685Y-117111487D01*
X118755805Y-117151714D01*
X116736965Y-119170554D01*
X116675642Y-119204039D01*
X116665470Y-119205812D01*
X116505195Y-119226913D01*
X116505194Y-119226913D01*
X116359117Y-119287420D01*
X116233672Y-119383677D01*
X116164760Y-119473485D01*
X116108332Y-119514688D01*
X116038586Y-119518842D01*
X115977666Y-119484629D01*
X115968010Y-119473485D01*
X115928288Y-119421718D01*
X115926129Y-119418904D01*
X115900936Y-119353735D01*
X115900506Y-119343419D01*
X115900506Y-119317248D01*
X115920191Y-119250209D01*
X115936825Y-119229567D01*
X118519573Y-116646819D01*
X118580896Y-116613334D01*
X118607254Y-116610500D01*
X118900208Y-116610500D01*
X118967247Y-116630185D01*
G37*
%TD.AperFunction*%
%TA.AperFunction,NonConductor*%
G36*
X116184296Y-120177327D02*
G01*
X116193953Y-120188472D01*
X116235833Y-120243051D01*
X116261027Y-120308220D01*
X116261457Y-120318537D01*
X116261457Y-122740647D01*
X116241772Y-122807686D01*
X116188968Y-122853441D01*
X116153645Y-122863585D01*
X116143238Y-122864956D01*
X116143234Y-122864957D01*
X116071952Y-122894483D01*
X116002483Y-122901952D01*
X115940004Y-122870676D01*
X115904352Y-122810587D01*
X115900500Y-122779922D01*
X115900500Y-120356587D01*
X115920185Y-120289548D01*
X115926124Y-120281100D01*
X115928283Y-120278285D01*
X115928288Y-120278282D01*
X115997203Y-120188468D01*
X116053629Y-120147269D01*
X116123375Y-120143114D01*
X116184296Y-120177327D01*
G37*
%TD.AperFunction*%
%TA.AperFunction,NonConductor*%
G36*
X115202612Y-114594685D02*
G01*
X115248367Y-114647489D01*
X115258512Y-114682814D01*
X115264956Y-114731761D01*
X115264956Y-114731762D01*
X115312571Y-114846716D01*
X115325464Y-114877841D01*
X115421718Y-115003282D01*
X115547159Y-115099536D01*
X115693238Y-115160044D01*
X115756990Y-115168437D01*
X115849999Y-115180682D01*
X115850000Y-115180682D01*
X115850001Y-115180682D01*
X115943010Y-115168437D01*
X116006762Y-115160044D01*
X116152841Y-115099536D01*
X116278282Y-115003282D01*
X116278283Y-115003279D01*
X116281093Y-115001124D01*
X116346263Y-114975930D01*
X116356580Y-114975500D01*
X118782745Y-114975500D01*
X118849784Y-114995185D01*
X118870426Y-115011819D01*
X119058597Y-115199990D01*
X119092082Y-115261313D01*
X119093855Y-115271485D01*
X119114956Y-115431761D01*
X119114956Y-115431762D01*
X119165273Y-115553239D01*
X119175464Y-115577841D01*
X119200151Y-115610014D01*
X119225345Y-115675183D01*
X119211307Y-115743627D01*
X119162493Y-115793617D01*
X119101775Y-115809500D01*
X118450339Y-115809500D01*
X118450323Y-115809499D01*
X118442727Y-115809499D01*
X118337273Y-115809499D01*
X118269366Y-115827695D01*
X118235412Y-115836793D01*
X118144084Y-115889522D01*
X115179528Y-118854078D01*
X115179526Y-118854081D01*
X115126797Y-118945408D01*
X115108950Y-119012020D01*
X115099506Y-119047265D01*
X115099506Y-119343419D01*
X115079821Y-119410458D01*
X115073882Y-119418905D01*
X114975470Y-119547157D01*
X114914962Y-119693237D01*
X114914961Y-119693239D01*
X114894324Y-119849998D01*
X114894324Y-119850001D01*
X114914961Y-120006760D01*
X114914962Y-120006762D01*
X114953577Y-120099988D01*
X114975470Y-120152841D01*
X115071724Y-120278282D01*
X115071726Y-120278284D01*
X115073876Y-120281085D01*
X115099070Y-120346255D01*
X115099500Y-120356572D01*
X115099500Y-123726000D01*
X115079815Y-123793039D01*
X115027011Y-123838794D01*
X114975500Y-123850000D01*
X114601362Y-123850000D01*
X114534323Y-123830315D01*
X114513681Y-123813681D01*
X112586319Y-121886319D01*
X112552834Y-121824996D01*
X112550000Y-121798638D01*
X112550000Y-116626362D01*
X112569685Y-116559323D01*
X112586319Y-116538681D01*
X114513681Y-114611319D01*
X114575004Y-114577834D01*
X114601362Y-114575000D01*
X115135573Y-114575000D01*
X115202612Y-114594685D01*
G37*
%TD.AperFunction*%
M02*
